<svg xmlns="http://www.w3.org/2000/svg" width="4.5" height="7.69" viewBox="0 0 4.5 7.69"><defs><style>.cls-1{fill:#fff;fill-rule:evenodd}</style></defs><path id="_" data-name="&gt;" class="cls-1" d="M518.8 1259.36c0-.02-.011-.02-.011-.04s-.011-.05-.033-.1c0-.01-.011-.01-.011-.02v-.09c0-.01-.011-.04-.011-.05s.011-.05.011-.06v-.08a.1.1 0 0 1 .011-.03.5.5 0 0 0 .033-.1c0-.01.011-.01.011-.02a1.056 1.056 0 0 1 .054-.1s0-.02.011-.02a.279.279 0 0 1 .077-.08l3.07-3.17a.7.7 0 1 1 .983 1l-2.589 2.66 2.589 2.65a.713.713 0 0 1 0 1 .7.7 0 0 1-.983 0l-3.07-3.16c-.033-.03-.055-.06-.077-.08a.01.01 0 0 1-.011-.01.757.757 0 0 0-.054-.1z" transform="translate(-518.719 -1255.22)"/></svg>