<svg width="5" height="8" viewBox="0 0 5 8" xmlns="http://www.w3.org/2000/svg"><title>_</title><path d="M4.42 3.53c0 .02.01.02.01.04s.012.05.034.1c0 .01.01.01.01.02v.09c0 .01.012.04.012.05 0 .01-.011.05-.011.06v.08a.1.1 0 0 1-.011.03.5.5 0 0 0-.033.1c0 .01-.011.01-.011.02a1.056 1.056 0 0 1-.054.1s0 .02-.011.02a.279.279 0 0 1-.077.08l-3.07 3.17a.701.701 0 1 1-.983-1l2.589-2.66-2.59-2.65a.713.713 0 0 1 0-1 .7.7 0 0 1 .984 0l3.07 3.16c.033.03.055.06.077.08a.01.01 0 0 1 .01.01.757.757 0 0 0 .055.1z" fill="#FFF" fill-rule="evenodd"/></svg>