<svg xmlns="http://www.w3.org/2000/svg" width="13.062" height="12.25" viewBox="0 0 13.062 12.25"><defs><style>.cls-1{fill:#fe992a;fill-rule:evenodd}</style></defs><path id="_" data-name="“" class="cls-1" d="M400.074 1162.95a.973.973 0 0 0-.726.89 1.011 1.011 0 0 0 .07.35 4.74 4.74 0 0 1 .445 1.3 7.015 7.015 0 0 1 .117 1.28 6.391 6.391 0 0 1-.2 1.59 8.079 8.079 0 0 1-.515 1.45 8.619 8.619 0 0 1-.715 1.27c-.266.39-.524.73-.774 1.03-.171.19-.3.34-.375.44a.609.609 0 0 0-.117.36.748.748 0 0 0 .3.54l1.125.75a14.6 14.6 0 0 0 3.527-4.07 9.225 9.225 0 0 0 1.278-4.63 8.625 8.625 0 0 0-.774-3.56zm-6.82 0a.967.967 0 0 0-.7.89 1.011 1.011 0 0 0 .07.35 5.257 5.257 0 0 1 .422 1.3 7.1 7.1 0 0 1 .117 1.28 6.391 6.391 0 0 1-.2 1.59 8.159 8.159 0 0 1-.516 1.45 8.619 8.619 0 0 1-.715 1.27c-.265.39-.523.73-.773 1.03-.172.19-.3.34-.375.44a.609.609 0 0 0-.117.36.748.748 0 0 0 .305.54l1.125.75a14.617 14.617 0 0 0 3.527-4.07 9.224 9.224 0 0 0 1.277-4.63 8.6 8.6 0 0 0-.773-3.56z" transform="translate(-390.469 -1161.94)"/></svg>