<svg xmlns="http://www.w3.org/2000/svg" width="13.062" height="12.25" viewBox="0 0 13.062 12.25"><defs><style>.cls-1{fill:#fe992a;fill-rule:evenodd}</style></defs><path id="_" data-name="“" class="cls-1" d="M323.926 976.055a.976.976 0 0 0 .726-.891 1.009 1.009 0 0 0-.07-.352 4.82 4.82 0 0 1-.445-1.3 7.058 7.058 0 0 1-.117-1.278 6.35 6.35 0 0 1 .2-1.593 8.31 8.31 0 0 1 .515-1.453 8.947 8.947 0 0 1 .715-1.266 12.673 12.673 0 0 1 .774-1.031 5.47 5.47 0 0 0 .375-.446.592.592 0 0 0 .117-.351.713.713 0 0 0-.3-.539l-1.125-.75a14.531 14.531 0 0 0-3.527 4.066 9.216 9.216 0 0 0-1.278 4.629 8.616 8.616 0 0 0 .188 1.781 8.751 8.751 0 0 0 .586 1.781zm6.82 0a.97.97 0 0 0 .7-.891 1.009 1.009 0 0 0-.07-.352 5.353 5.353 0 0 1-.422-1.3 7.149 7.149 0 0 1-.117-1.278 6.35 6.35 0 0 1 .2-1.593 8.394 8.394 0 0 1 .516-1.453 8.947 8.947 0 0 1 .715-1.266 12.448 12.448 0 0 1 .773-1.031 5.083 5.083 0 0 0 .375-.446.592.592 0 0 0 .117-.351.713.713 0 0 0-.305-.539l-1.125-.75a14.547 14.547 0 0 0-3.527 4.066 9.215 9.215 0 0 0-1.276 4.629 8.615 8.615 0 0 0 .187 1.781 8.751 8.751 0 0 0 .586 1.781z" transform="translate(-320.469 -964.812)"/></svg>