<svg width="14" height="14" viewBox="0 0 14 14" xmlns="http://www.w3.org/2000/svg"><title>Combined Shape</title><path d="M10.634 9.253c.556.553 1.112 1.106 1.665 1.662.463.465.46 1.036-.006 1.507-.314.318-.649.62-.946.952-.434.486-.975.643-1.598.609-.905-.05-1.737-.35-2.54-.74A13.85 13.85 0 0 1 2.62 9.654C1.675 8.531.895 7.306.383 5.926c-.25-.667-.428-1.35-.373-2.075.035-.446.201-.827.53-1.138.355-.338.69-.69 1.04-1.034.453-.448 1.024-.448 1.48-.002.283.276.56.558.839.838.27.273.541.541.812.815.477.48.477 1.039.003 1.516-.34.344-.678.687-1.025 1.022-.09.09-.099.163-.052.273.23.548.559 1.034.928 1.488.746.914 1.587 1.726 2.59 2.357.216.134.455.233.679.355.114.064.192.044.285-.052.34-.35.687-.693 1.034-1.036.454-.451 1.024-.451 1.481 0zm-.556-2.32a3.704 3.704 0 0 0-1.036-2.002 3.704 3.704 0 0 0-2.119-1.057l.151-1.08A4.774 4.774 0 0 1 9.81 4.16a4.8 4.8 0 0 1 1.342 2.59l-1.074.184zm1.68-4.669a7.977 7.977 0 0 1 2.229 4.3l-1.074.183a6.861 6.861 0 0 0-1.924-3.711A6.867 6.867 0 0 0 7.066 1.08L7.217 0a7.92 7.92 0 0 1 4.54 2.264z" fill="#FFF"/></svg>