<svg xmlns="http://www.w3.org/2000/svg" xmlns:xlink="http://www.w3.org/1999/xlink" width="30" height="25" viewBox="0 0 30 25"><svg width="30" height="25" viewBox="0 0 30 25"><title>Combined Shape</title><path d="M29.03 0c.535 0 .97.348.97.776v3.448c0 .428-.435.776-.97.776H.97C.434 5 0 4.652 0 4.224V.776C0 .348.435 0 .97 0h28.06zm0 10c.535 0 .97.348.97.776v3.448c0 .428-.435.776-.97.776H.97c-.535 0-.97-.348-.97-.776v-3.448C0 10.348.435 10 .97 10h28.06zm0 10c.535 0 .97.348.97.776v3.448c0 .428-.435.776-.97.776H.97c-.535 0-.97-.348-.97-.776v-3.448C0 20.348.435 20 .97 20h28.06z" fill="#FFF"/></svg></svg>