<svg xmlns="http://www.w3.org/2000/svg" width="48" height="48" viewBox="0 0 48 48"><defs><style>.cls-1{fill:#fff;fill-rule:evenodd}</style></defs><path id="icon" class="cls-1" d="M707.975 1023.03a19.5 19.5 0 0 0-8.925 1.8 7.267 7.267 0 0 0-2.517 2.13 4.966 4.966 0 0 0-.939 2.98 5.359 5.359 0 0 0 .571 2.48 4.318 4.318 0 0 0 1.606 1.75 4.424 4.424 0 0 0 2.394.64 6.037 6.037 0 0 0 2.8-.62 4.71 4.71 0 0 0 1.891-1.69 4.38 4.38 0 0 0 .667-2.37q0-3.645-3.728-5.03a6.336 6.336 0 0 1 1.428-.68 4.749 4.749 0 0 1 1.511-.27 3.764 3.764 0 0 1 3.376 1.4 5.807 5.807 0 0 1 .885 3.17v4.98a2.616 2.616 0 0 1-.966 2.02 9.187 9.187 0 0 1-2.52 1.47q-1.428.615-4.394 1.68a12.22 12.22 0 0 0-5.361 3.1 6.86 6.86 0 0 0-1.714 4.76 6.544 6.544 0 0 0 .813 3.27h-21.2a2.141 2.141 0 0 1-.184-.32 8.948 8.948 0 0 1-.476-3.41v-9.47h2.068a23.984 23.984 0 0 0 10.354-1.88 12.352 12.352 0 0 0 5.686-4.69 11.435 11.435 0 0 0 1.66-5.89 9.317 9.317 0 0 0-1.864-5.77 11.886 11.886 0 0 0-5.632-3.85 26.65 26.65 0 0 0-9.292-1.75c-.708 0-2 .02-3.864.05s-3.565 0-5.089 0c-1.472 0-2.806-.01-4.023-.02v-7a4 4 0 0 1 4-4h40a4 4 0 0 1 4 4v17.2a25.552 25.552 0 0 0-3.022-.17zm-33.875-8.23a3.749 3.749 0 0 1 1.918-.39 4.25 4.25 0 0 1 4.122 2.55q1.239 2.565 1.238 7.98a17.547 17.547 0 0 1-1.469 7.85q-1.47 2.895-5.388 2.89H673v-16.49a14.391 14.391 0 0 1 .231-2.99 2.089 2.089 0 0 1 .869-1.4zm34.775 21.18H709v11.76a3.058 3.058 0 0 1-2.193.92q-2.83 0-2.83-3.94a8.469 8.469 0 0 1 2.721-6.29 16.81 16.81 0 0 0 2.175-2.45z" transform="translate(-663 -1002)"/></svg>