<svg xmlns="http://www.w3.org/2000/svg" xmlns:xlink="http://www.w3.org/1999/xlink" width="136" height="545" viewBox="0 0 136 545"><svg width="22" height="22" viewBox="0 0 22 22" id="fb-white"><defs><style>.cls-1{fill:#fff;fill-rule:evenodd}</style></defs><path id="fb" class="cls-1" d="M1831.79 1015h-19.58a1.208 1.208 0 0 0-1.21 1.21v19.58a1.208 1.208 0 0 0 1.21 1.21h10.54v-8.53h-2.88v-3.31h2.88v-2.45a4 4 0 0 1 4.27-4.38 24.485 24.485 0 0 1 2.56.12v2.97h-1.75a1.376 1.376 0 0 0-1.64 1.62v2.12h3.28l-.43 3.31h-2.85v8.53h5.6a1.208 1.208 0 0 0 1.21-1.21v-19.58a1.208 1.208 0 0 0-1.21-1.21z" transform="translate(-1811 -1015)"/></svg><svg width="77" height="102" viewBox="0 0 77 102" id="features-cashback" y="22"><title>icon</title><defs><linearGradient x1="0%" y1="5.064%" x2="50%" y2="79.53%" id="a"><stop stop-color="#FCA280" offset="0%"/><stop stop-color="#E75FA9" offset="100%"/></linearGradient></defs><path d="M39.21 4c-8.817 0-15.991 6.942-15.991 15.477s7.174 15.477 15.991 15.477c8.819 0 15.992-6.942 15.992-15.477S48.029 4 39.21 4zM28.019 19.477c0-5.887 5.02-10.677 11.191-10.677 6.172 0 11.192 4.79 11.192 10.677 0 5.888-5.02 10.678-11.192 10.678-6.171 0-11.191-4.79-11.191-10.678zm14.3-5.298a1.6 1.6 0 0 0 .169 2.256c1.022.879 1.607 2.133 1.607 3.44 0 2.558-2.191 4.64-4.885 4.64-2.693 0-4.885-2.082-4.885-4.64 0-1.257.521-2.433 1.467-3.313a1.6 1.6 0 1 0-2.181-2.342c-1.603 1.491-2.485 3.5-2.485 5.655 0 4.322 3.627 7.84 8.084 7.84 4.458 0 8.085-3.518 8.085-7.84 0-2.239-.992-4.377-2.72-5.865a1.595 1.595 0 0 0-1.044-.387c-.449 0-.896.188-1.212.556zm-3.893 23.476a8.253 8.253 0 0 0-5.878-2.459c-4.565 0-8.279 3.715-8.279 8.28 0 1.566.446 3.028 1.205 4.279h-9.828c-4.159 0-7.543 3.258-7.543 7.263 0 1.292.354 2.54 1.01 3.631C3.118 65.419.024 72.41 0 79.045v.151c.01 2.808.57 5.552 1.695 8.187 4.731 11.085 18.836 17.972 36.811 17.972 17.986 0 32.094-6.894 36.818-17.991 3.804-8.934 1.128-19.109-7.523-28.825a7.034 7.034 0 0 0 .949-3.521c0-4.005-3.384-7.263-7.545-7.263h-9.826a8.215 8.215 0 0 0 1.205-4.279c0-4.565-3.714-8.28-8.279-8.28a8.255 8.255 0 0 0-5.879 2.459zm2.4 5.821a3.483 3.483 0 0 1 3.479-3.479 3.483 3.483 0 0 1 3.479 3.479 3.483 3.483 0 0 1-3.479 3.479 3.483 3.483 0 0 1-3.479-3.479zm-11.757 0a3.483 3.483 0 0 1 3.479-3.479 3.483 3.483 0 0 1 3.478 3.479 3.483 3.483 0 0 1-3.478 3.479 3.483 3.483 0 0 1-3.479-3.479zM13.82 56.85c-.343-.277-.918-.881-.918-1.832 0-1.359 1.232-2.463 2.744-2.463h45.559c1.514 0 2.745 1.104 2.745 2.463 0 .68-.309 1.317-.872 1.79a2.41 2.41 0 0 0-.462.547H14.274a2.395 2.395 0 0 0-.454-.505zm41.639 33.722c4.767-4.075 7.327-8.841 7.607-14.166.353-6.689-2.984-12.582-5.32-15.851h5.379c8.188 8.627 10.958 17.47 7.782 24.929-3.956 9.296-16.372 15.07-32.401 15.07-16.019 0-28.432-5.769-32.396-15.056-3.184-7.46-.419-16.311 7.773-24.943h6.748c-7.649 10.693-5.416 17.082-5.31 17.362a1.58 1.58 0 0 0 1.486 1.027 1.61 1.61 0 0 0 1.519-2.126c-.019-.059-1.855-5.885 6.151-16.075.045-.058.059-.127.095-.188h3.345c-.462 1.339-1.498 4.788-1.498 8.8a1.6 1.6 0 1 0 3.2 0c0-4.412 1.471-8.17 1.487-8.208.077-.194.107-.395.107-.592h22.48c1.522 1.801 6.573 8.357 6.177 15.699-.238 4.409-2.421 8.407-6.49 11.884a1.6 1.6 0 0 0-.177 2.256 1.597 1.597 0 0 0 2.256.178z" transform="translate(0 -4)" fill="url(#a)" fill-rule="evenodd"/></svg><svg width="59" height="88" viewBox="0 0 59 88" id="features-mobileapp" y="124"><title>icon</title><defs><linearGradient x1="0%" y1="5.064%" x2="50%" y2="79.53%" id="a"><stop stop-color="#FCA280" offset="0%"/><stop stop-color="#E75FA9" offset="100%"/></linearGradient></defs><path d="M10.4 4C4.666 4 0 8.665 0 14.4v67.2C0 87.335 4.666 92 10.4 92H48c5.734 0 10.4-4.665 10.4-10.4V14.4C58.4 8.665 53.734 4 48 4H10.4zM4.8 81.6V14.4a5.606 5.606 0 0 1 5.6-5.601H48c3.088 0 5.6 2.512 5.6 5.601v67.2a5.605 5.605 0 0 1-5.6 5.599H10.4A5.605 5.605 0 0 1 4.8 81.6zm4-6.4h40.8V12.8H8.8v62.4zm3.2-3.201h34.401V16H12v55.999zM17.6 24.8a1.6 1.6 0 0 0-1.6 1.6v24.8a1.6 1.6 0 0 0 1.6 1.6h5.738l5.131 5.131c.312.313.722.469 1.131.469.41 0 .819-.156 1.131-.469l5.131-5.131H40.8a1.6 1.6 0 0 0 1.6-1.6V26.4a1.6 1.6 0 0 0-1.6-1.6H17.6zm1.6 3.199h20V49.6h-4c-.424 0-.832.168-1.131.469L29.6 54.538l-4.468-4.469A1.6 1.6 0 0 0 24 49.6h-4.8V27.999zm9.6 2.401v1.879c-2.876.066-4.8 1.838-4.8 4.467 0 2.738 2.743 3.683 4.8 4.362v3.108c-1.281-.192-2.045-.898-2.069-.921a1.6 1.6 0 0 0-2.263 0 1.602 1.602 0 0 0 0 2.263c.181.18 1.746 1.641 4.332 1.863V48.8a.8.8 0 1 0 1.6 0v-1.409c2.718-.359 4.8-2.19 4.8-4.404 0-2.914-2.634-3.993-4.8-4.721v-2.563c.613.197 1.019.447 1.042.461a1.601 1.601 0 0 0 2.21-.45 1.602 1.602 0 0 0-.444-2.219c-.147-.098-1.233-.783-2.808-1.084V30.4a.8.8 0 0 0-1.6 0zm-1.6 6.346c0-.306.016-1.206 1.6-1.268v2.243c-.818-.302-1.6-.658-1.6-.975zm3.2 4.927c.978.39 1.6.784 1.6 1.314 0 .292-.559.907-1.6 1.162v-2.476zm-4.8 39.126a3.2 3.2 0 0 0 6.4 0 3.2 3.2 0 0 0-6.4 0z" transform="translate(0 -4)" fill="url(#a)" fill-rule="evenodd"/></svg><svg width="72" height="96" viewBox="0 0 72 96" id="features-offers" y="212"><title>icon</title><defs><linearGradient x1="0%" y1="5.064%" x2="50%" y2="79.53%" id="a"><stop stop-color="#FCA280" offset="0%"/><stop stop-color="#E75FA9" offset="100%"/></linearGradient></defs><path d="M35.736 4C16.041 4 .018 19.976.018 39.613c0 .392-.004.794-.009 1.201-.004.381-.008.772-.009 1.175v.291c.006 2.781.202 6.043 1.663 9.467.123.286.305.52.511.729C7.947 71.11 32.811 97.225 34.004 98.47a2.398 2.398 0 0 0 1.732.739h.001c.654 0 1.281-.268 1.733-.741 1.286-1.342 30.146-31.696 32.779-50.303a29.842 29.842 0 0 0 1.206-8.447C71.455 20.022 55.432 4 35.736 4zm0 4.799c13.663 0 25.278 8.913 29.354 21.227-5.587-10.508-16.647-17.68-29.354-17.68-12.764 0-23.863 7.238-29.427 17.823 4.011-12.384 15.683-21.37 29.427-21.37zM5.771 45.573c0-.167-.017-.329-.05-.486.261-16.333 13.621-29.541 30.015-29.541 16.354 0 29.688 13.143 30.013 29.422a2.321 2.321 0 0 0-.088.605c0 .452-.031.924-.082 1.405a23.806 23.806 0 0 1-.732 2.124 2.355 2.355 0 0 0-.043 1.638c-3.942 13.348-20.526 33.321-29.069 42.565C25.984 82.771 5.771 58.297 5.771 45.573zm42.701-15.71a1.6 1.6 0 0 0 .169 2.256c4.048 3.483 6.369 8.468 6.369 13.679 0 10.129-8.593 18.372-19.157 18.372-10.562 0-19.156-8.243-19.156-18.372 0-5.01 2.064-9.692 5.814-13.183a1.6 1.6 0 0 0-2.18-2.342c-4.407 4.104-6.835 9.616-6.835 15.525 0 11.895 10.03 21.572 22.357 21.572 12.328 0 22.357-9.677 22.357-21.572 0-6.144-2.727-12.014-7.481-16.104a1.594 1.594 0 0 0-1.043-.387c-.45 0-.898.188-1.214.556zm-23.811 9.806a5.836 5.836 0 0 0 5.829 5.83 5.837 5.837 0 0 0 5.83-5.83 5.836 5.836 0 0 0-5.83-5.828 5.835 5.835 0 0 0-5.829 5.828zm3.199 0a2.632 2.632 0 0 1 2.63-2.628 2.631 2.631 0 0 1 2.629 2.628 2.632 2.632 0 0 1-2.629 2.629 2.632 2.632 0 0 1-2.63-2.629zm15.998-4.151l-17.52 17.52a1.599 1.599 0 0 0 0 2.262 1.59 1.59 0 0 0 1.131.469c.409 0 .819-.156 1.131-.469l17.52-17.521a1.596 1.596 0 0 0 0-2.261 1.588 1.588 0 0 0-1.13-.469c-.41 0-.82.156-1.132.469zm-7.719 15.631a5.836 5.836 0 0 0 5.83 5.828 5.835 5.835 0 0 0 5.829-5.828 5.834 5.834 0 0 0-5.829-5.829 5.836 5.836 0 0 0-5.83 5.829zm3.201 0a2.632 2.632 0 0 1 2.629-2.63 2.632 2.632 0 0 1 2.629 2.63 2.632 2.632 0 0 1-2.629 2.629 2.632 2.632 0 0 1-2.629-2.629z" transform="translate(0 -4)" fill="url(#a)" fill-rule="evenodd"/></svg><svg width="82" height="82" viewBox="0 0 82 82" id="features-support" y="308"><title>icon</title><defs><linearGradient x1="0%" y1="5.064%" x2="50%" y2="79.53%" id="a"><stop stop-color="#FCA280" offset="0%"/><stop stop-color="#E75FA9" offset="100%"/></linearGradient></defs><path d="M40.8 0C18.303 0 0 18.302 0 40.8c0 22.497 18.303 40.8 40.8 40.8 22.497 0 40.8-18.303 40.8-40.8a2.4 2.4 0 1 0-4.8 0c0 19.85-16.149 35.999-36 35.999s-36-16.148-36-36c0-19.85 16.149-36 36-36 7.87 0 15.311 2.5 21.573 7.2h-6.071a2.4 2.4 0 1 0 0 4.801h11.201a2.4 2.4 0 0 0 2.399-2.4V3.087a2.4 2.4 0 0 0-4.8 0v4.969C58.034 2.796 49.658 0 40.8 0zm-1.298 13.6a1.6 1.6 0 0 0 3.2 0 1.6 1.6 0 0 0-3.2 0zm11.447 14.746L41.35 43.545A1.6 1.6 0 1 0 42.702 46h8v4.8a1.6 1.6 0 1 0 3.201 0V46h3.199a1.6 1.6 0 1 0 0-3.2h-3.199V29.2a1.6 1.6 0 0 0-1.156-1.537 1.607 1.607 0 0 0-1.798.683zm-.247 6.384v8.07h-5.096l5.096-8.07zm-25.6.936a1.6 1.6 0 0 0 3.2 0c0-4.248 3.292-4.707 4.706-4.707 1.692 0 4.076 1.266 4.076 4.076 0 2.217-2.873 4.847-5.408 7.169-3.056 2.799-5.943 5.443-5.943 8.596v1.599h13.581a1.6 1.6 0 0 0 0-3.199h-9.83c.887-1.462 2.7-3.122 4.354-4.636 3.169-2.903 6.445-5.904 6.445-9.53 0-4.552-3.699-7.274-7.275-7.274-3.646 0-7.906 2.07-7.906 7.906zm42.401 5.933a1.6 1.6 0 0 0 3.199 0 1.6 1.6 0 0 0-3.199 0zm-56.801 0a1.6 1.6 0 0 0 3.2 0 1.6 1.6 0 1 0-3.2 0zm28.8 28a1.6 1.6 0 0 0 3.2 0 1.6 1.6 0 0 0-3.2 0z" fill="url(#a)" fill-rule="evenodd"/></svg><svg width="30" height="25" viewBox="0 0 30 25" id="menu" y="390"><title>Combined Shape</title><path d="M29.03 0c.535 0 .97.348.97.776v3.448c0 .428-.435.776-.97.776H.97C.434 5 0 4.652 0 4.224V.776C0 .348.435 0 .97 0h28.06zm0 10c.535 0 .97.348.97.776v3.448c0 .428-.435.776-.97.776H.97c-.535 0-.97-.348-.97-.776v-3.448C0 10.348.435 10 .97 10h28.06zm0 10c.535 0 .97.348.97.776v3.448c0 .428-.435.776-.97.776H.97c-.535 0-.97-.348-.97-.776v-3.448C0 20.348.435 20 .97 20h28.06z" fill="#FFF"/></svg><svg width="136" height="112" viewBox="0 0 136 112" id="slider-01" y="415"><title>Fill 1</title><path d="M119.108 21.422C109.05 9.032 99.501 5.572 97.412 7.266c-.347.281-10.972 8.742-17.263 13.751 10.223.501 19.233 4.243 25.718 10.764 6.606 6.648 10.555 14.39 11.672 22.688l10.967-8.903c2.088-1.696.662-11.754-9.398-24.144M75.793 25.32a2.091 2.091 0 0 1-1.023-.214 3.23 3.23 0 0 1-.919.207c-2.39.18-4.003.471-6.394 1.154-7.58 2.166-12.51 5.165-14.653 8.914-1.8 3.15-3.069 8.14-3.525 13.081 2.153.726 5.212 2.561 5.76 5.846a2.16 2.16 0 0 1-4.26.71c-.14-.835-.909-1.472-1.68-1.91.03 1.47.144 2.88.36 4.167.297 1.79 1.32 2.81 3.04 3.036 1.722.224 3.277-.52 3.658-1.358 1.931-4.24 4.342-13.852 4.366-13.948a3.253 3.253 0 0 1 3.28-2.452c.076.004 7.642.31 14.008-.398 6.964-.773 12.526-2.715 12.582-2.734.03-.01.06-.013.09-.022a3.24 3.24 0 0 1 3.58.335l19.241 15.622c-.943-7.485-4.502-14.493-10.5-20.529-6.563-6.6-16.156-9.966-27.01-9.507m-43.202 9.154c-5.517 6.795-7.66 15.696-5.947 24.214a11.045 11.045 0 0 1 3.87 2.238 11.024 11.024 0 0 1 3.584 6.532c3.464-.886 7.294-.093 10.158 2.457a11.032 11.032 0 0 1 3.706 7.655c.008.133.001.265.004.398 3.054-.214 5.92.716 8.108 2.662a11.114 11.114 0 0 1 3.727 7.648c2.9-.217 5.88.687 8.218 2.768a11.048 11.048 0 0 1 3.707 7.657 11.153 11.153 0 0 1-.279 3.214l2.083 1.691a4.584 4.584 0 0 0 6.438-.669 4.582 4.582 0 0 0-.667-6.437 3.24 3.24 0 1 1 4.084-5.03l.001.001 2.734 2.22a4.547 4.547 0 0 0 3.357.998 4.544 4.544 0 0 0 3.08-1.666 4.548 4.548 0 0 0 1-3.357 4.546 4.546 0 0 0-1.66-3.073l-.009-.006a3.24 3.24 0 0 1 4.084-5.03c.005.003.01.006.013.01l2.723 2.211a4.584 4.584 0 0 0 6.44-.67 4.546 4.546 0 0 0 .998-3.355 4.545 4.545 0 0 0-1.668-3.08 3.24 3.24 0 0 1 4.084-5.032c.005.004.01.007.013.011l2.725 2.212a4.539 4.539 0 0 0 3.355.997 4.538 4.538 0 0 0 3.078-1.665 4.583 4.583 0 0 0-.666-6.439L91.39 45.911a71.128 71.128 0 0 1-12.863 2.684c-4.52.503-9.445.536-12.375.498-.899 3.343-2.573 9.196-4.096 12.543-1.448 3.187-4.98 5.2-8.896 5.2-.497 0-.999-.033-1.504-.1-4.535-.595-7.826-3.812-8.59-8.396-1.373-8.24.434-19.737 4.112-26.175 1.926-3.37 5.052-6.164 9.45-8.444-9.095-.423-18.069 3.403-24.036 10.753m100 16.122l-12.576 10.21 1.136.922c4.733 3.844 5.456 10.822 1.613 15.553a10.976 10.976 0 0 1-7.44 4.028c-.918.095-1.829.077-2.719-.049a10.96 10.96 0 0 1-2.429 5.935 11.06 11.06 0 0 1-10.16 3.972 10.984 10.984 0 0 1-2.429 5.943 10.986 10.986 0 0 1-7.44 4.027c-.922.095-1.835.077-2.727-.05a11.04 11.04 0 0 1-11.017 10.02c-2.449 0-4.913-.808-6.958-2.468l-1.46-1.187c-.209.107-.424.19-.646.25a3.155 3.155 0 0 1-.939 1.29 10.973 10.973 0 0 1-6.948 2.473c-.386 0-.774-.02-1.163-.06a10.987 10.987 0 0 1-7.442-4.03 10.987 10.987 0 0 1-2.419-5.946c-.516.074-1.038.12-1.565.12-.386 0-.774-.02-1.163-.06a10.988 10.988 0 0 1-7.442-4.027 10.976 10.976 0 0 1-2.427-5.945c-.514.073-1.032.12-1.557.12-.386 0-.773-.022-1.163-.062a10.986 10.986 0 0 1-7.442-4.029 10.97 10.97 0 0 1-2.428-5.934c-.89.125-1.8.146-2.719.05a10.973 10.973 0 0 1-7.44-4.029 10.982 10.982 0 0 1-2.415-8.11 10.977 10.977 0 0 1 3.898-7.325c.082-.123.16-.247.26-.359.39-.438.813-.825 1.252-1.186l-12.82-10.41c-7.34-5.96-1.305-21.242 8.45-33.258C21.463 4.97 35.178-4.078 42.52 1.883c.363.295 14.943 11.98 22.971 18.412.064-.019.121-.04.185-.059 2.485-.71 4.34-1.076 6.681-1.299C79.862 12.963 92.935 2.553 93.33 2.233c7.338-5.956 21.055 3.09 30.81 15.104 9.755 12.016 15.791 27.3 8.452 33.26zM38.437 6.916c-2.09-1.697-11.64 1.764-21.698 14.153C6.68 33.46 5.254 43.517 7.341 45.212L22.02 57.13c-1.14-9.022 1.407-18.218 7.22-25.378a33.527 33.527 0 0 1 24.73-12.386 38478.178 38478.178 0 0 1-15.532-12.45zM18.113 73.55a4.544 4.544 0 0 0 3.078 1.666 4.535 4.535 0 0 0 3.356-.999l1.634-1.326c.114-.205.247-.403.41-.586a4.6 4.6 0 0 0 1.162-3.346 4.6 4.6 0 0 0-1.546-3.192 4.64 4.64 0 0 0-6.54.38c-.069.076-.148.134-.22.203a3.2 3.2 0 0 1-.667.762 4.551 4.551 0 0 0-1.667 3.08 4.55 4.55 0 0 0 1 3.358zM30.7 83.461a4.543 4.543 0 0 0 3.082 1.668 4.55 4.55 0 0 0 3.356-.997l2.736-2.22v-.002l.05-.038a3.22 3.22 0 0 1 .406-.579 4.598 4.598 0 0 0 1.165-3.346 4.598 4.598 0 0 0-1.546-3.19 4.572 4.572 0 0 0-3.349-1.165 4.594 4.594 0 0 0-3.192 1.544 3.204 3.204 0 0 1-1.193.832c-.2.396-.479.76-.847 1.06a4.543 4.543 0 0 0-1.667 3.08 4.538 4.538 0 0 0 1 3.353zm12.59 9.916a4.551 4.551 0 0 0 3.08 1.667 4.538 4.538 0 0 0 3.356-1l2.58-2.093a4.68 4.68 0 0 0 1.034-3.232 4.683 4.683 0 0 0-1.573-3.249c-.89-.793-2.114-1.159-3.453-1.038-1.365.126-2.645.758-3.513 1.735-.157.175-.327.33-.51.463a3.2 3.2 0 0 1-.334.312 4.54 4.54 0 0 0-1.666 3.078 4.549 4.549 0 0 0 1 3.357zm12.59 9.914a4.54 4.54 0 0 0 3.08 1.668 4.558 4.558 0 0 0 3.357-.999c.363-.295.776-.466 1.2-.579a3.2 3.2 0 0 1 .578-.955 4.595 4.595 0 0 0 1.163-3.346 4.606 4.606 0 0 0-1.546-3.193 4.6 4.6 0 0 0-3.349-1.163 4.597 4.597 0 0 0-3.19 1.545c-.049.053-.106.093-.157.142l-.019.024c-.12.135-.25.26-.392.373l-.065.053a4.58 4.58 0 0 0-.66 6.43z" fill="#FEFEFE" fill-rule="evenodd"/></svg><svg width="23" height="18" viewBox="0 0 23 18" id="twitter-white" y="527"><defs><style>.cls-1{fill:#fff;fill-rule:evenodd}</style></defs><path id="twi" class="cls-1" d="M1781 1019.14a9.658 9.658 0 0 1-2.71.71 4.556 4.556 0 0 0 2.08-2.51 9.547 9.547 0 0 1-3 1.1 4.808 4.808 0 0 0-3.44-1.43 4.629 4.629 0 0 0-4.72 4.54 4.4 4.4 0 0 0 .12 1.03 13.6 13.6 0 0 1-9.73-4.74 4.349 4.349 0 0 0-.64 2.28 4.478 4.478 0 0 0 2.1 3.78 4.834 4.834 0 0 1-2.14-.57v.06a4.594 4.594 0 0 0 3.79 4.45 4.709 4.709 0 0 1-1.25.16 5.052 5.052 0 0 1-.88-.08 4.692 4.692 0 0 0 4.4 3.15 9.687 9.687 0 0 1-5.86 1.95 8.317 8.317 0 0 1-1.12-.07 13.729 13.729 0 0 0 7.23 2.04 13.077 13.077 0 0 0 13.43-12.92c0-.19 0-.39-.01-.58a9.372 9.372 0 0 0 2.35-2.35z" transform="translate(-1758 -1017)"/></svg></svg>