<svg width="24" height="19" viewBox="0 0 24 19" xmlns="http://www.w3.org/2000/svg"><title>twi</title><path d="M16.616 0c-2.718 0-4.923 2.121-4.923 4.736 0 .372.043.734.128 1.08C7.728 5.618 4.099 3.733 1.67.866a4.575 4.575 0 0 0-.666 2.383c0 1.643.869 3.093 2.19 3.943A5.053 5.053 0 0 1 .964 6.6v.06c0 2.295 1.697 4.21 3.95 4.645a5.198 5.198 0 0 1-1.297.166c-.317 0-.626-.029-.927-.085.627 1.883 2.446 3.251 4.6 3.29a10.131 10.131 0 0 1-6.115 2.028c-.398 0-.789-.023-1.175-.066a14.334 14.334 0 0 0 7.548 2.128c9.057 0 14.01-7.218 14.01-13.479 0-.205-.005-.41-.015-.612A9.771 9.771 0 0 0 24 2.22c-.883.379-1.83.632-2.828.748A4.79 4.79 0 0 0 23.337.346c-.95.543-2.004.937-3.127 1.15A5.01 5.01 0 0 0 16.616 0z" fill="#1DA1F2" fill-rule="evenodd"/></svg>