<svg id="Logo" xmlns="http://www.w3.org/2000/svg" width="274.812" height="29.219" viewBox="0 0 274.812 29.219"><defs><style>.cls-1,.cls-2{fill:#f9812b;fill-rule:evenodd}.cls-2{fill:#fff}</style></defs><path id="_1" data-name="1" class="cls-1" d="M426.818 65.472h70.41a3.644 3.644 0 0 1 3.772 3.5v14a3.644 3.644 0 0 1-3.772 3.5h-70.41a3.643 3.643 0 0 1-3.772-3.5v-14a3.643 3.643 0 0 1 3.772-3.5z" transform="translate(-226.188 -65.188)"/><path id="DESIGN" class="cls-2" d="M441.969 79.733a4.623 4.623 0 0 0 2.258-.54 3.7 3.7 0 0 0 1.518-1.536 4.818 4.818 0 0 0 .533-2.311v-.463a4.848 4.848 0 0 0-.529-2.3 3.757 3.757 0 0 0-1.5-1.549 4.421 4.421 0 0 0-2.213-.546h-2.778v9.242h2.707zm.071-7.947a2.38 2.38 0 0 1 1.932.794 3.492 3.492 0 0 1 .665 2.3v.514a3.4 3.4 0 0 1-.7 2.269 2.474 2.474 0 0 1-1.973.79H440.9v-6.668h1.143zm11.786 2.552h-3.864v-2.553h4.471v-1.294h-6.105v9.242h6.151V78.45h-4.517v-2.843h3.864v-1.27zm6.8 3.913a2.044 2.044 0 0 1-1.283.34 2.347 2.347 0 0 1-1.518-.432 1.481 1.481 0 0 1-.53-1.219h-1.635a2.527 2.527 0 0 0 .475 1.523 3.146 3.146 0 0 0 1.331 1.025 4.667 4.667 0 0 0 1.877.371 3.957 3.957 0 0 0 2.445-.682 2.186 2.186 0 0 0 .9-1.838 2.42 2.42 0 0 0-.31-1.241 2.783 2.783 0 0 0-.976-.939 7.331 7.331 0 0 0-1.764-.73 5.542 5.542 0 0 1-1.576-.66 1.008 1.008 0 0 1-.478-.847 1.112 1.112 0 0 1 .442-.939 2.018 2.018 0 0 1 1.244-.337 1.928 1.928 0 0 1 1.321.409 1.435 1.435 0 0 1 .462 1.133h1.628a2.563 2.563 0 0 0-.439-1.457 2.865 2.865 0 0 0-1.208-1.012 4.128 4.128 0 0 0-1.751-.355 3.8 3.8 0 0 0-2.407.724 2.239 2.239 0 0 0-.927 1.841A2.367 2.367 0 0 0 457.235 75a7.667 7.667 0 0 0 1.809.749 5.3 5.3 0 0 1 1.573.666 1.108 1.108 0 0 1 .436.939 1.089 1.089 0 0 1-.429.897zm5.046-7.76h-1.628v9.242h1.628v-9.242zm9.522 4.5h-3.566v1.219h1.938v1.809a2.382 2.382 0 0 1-1.783.559 2.135 2.135 0 0 1-1.787-.828 3.714 3.714 0 0 1-.643-2.324v-.71a3.908 3.908 0 0 1 .591-2.28 1.946 1.946 0 0 1 1.671-.777 1.793 1.793 0 0 1 1.97 1.669h1.6a3.272 3.272 0 0 0-1.111-2.2 3.791 3.791 0 0 0-2.494-.765 3.57 3.57 0 0 0-2.849 1.177 4.832 4.832 0 0 0-1.021 3.272v.724a5.191 5.191 0 0 0 .514 2.288 3.532 3.532 0 0 0 1.405 1.508 4.1 4.1 0 0 0 2.093.527 5.869 5.869 0 0 0 2.055-.336 3.123 3.123 0 0 0 1.415-.99v-3.542zm9.318-4.5h-1.622v6.582l-4.206-6.582h-1.634v9.242h1.634v-6.557l4.193 6.557h1.635v-9.242z" transform="translate(-226.188 -65.188)"/><path id="Highdax" class="cls-2" d="M249.319 65.563h-5.856v11.523h-11.419V65.563h-5.856V94h5.856V81.813h11.419V94h5.856V65.563zm13.079 0h-5.856V94h5.858V65.563zm30.251 13.5h-11.185v4.316h5.329v4.9q-1.406 1.406-4.7 1.406a5.813 5.813 0 0 1-4.977-2.285q-1.7-2.285-1.7-6.758v-1.818q.019-4.433 1.581-6.68a5.193 5.193 0 0 1 4.549-2.246 5.515 5.515 0 0 1 3.679 1.133 5.678 5.678 0 0 1 1.728 3.574h5.7a10.309 10.309 0 0 0-3.377-7.022q-2.85-2.412-7.9-2.412a11.912 11.912 0 0 0-6.334 1.65 10.612 10.612 0 0 0-4.138 4.766 17.486 17.486 0 0 0-1.435 7.373v1.934a16.463 16.463 0 0 0 1.552 7.207 10.743 10.743 0 0 0 4.294 4.678 12.676 12.676 0 0 0 6.471 1.611 18.714 18.714 0 0 0 6.4-1.045 10.16 10.16 0 0 0 4.47-2.939V79.059zm29.627-13.5h-5.856v11.523H305V65.563h-5.856V94H305V81.813h11.42V94h5.856V65.563zM337.931 94a13.375 13.375 0 0 0 6.7-1.719 11.676 11.676 0 0 0 4.6-4.785 14.863 14.863 0 0 0 1.63-7.051v-1.308a14.829 14.829 0 0 0-1.659-7.08 11.78 11.78 0 0 0-4.616-4.8 13.279 13.279 0 0 0-6.7-1.689h-8.745V94h8.8zm-.058-23.691a6.338 6.338 0 0 1 5.251 2.236q1.8 2.237 1.795 6.572v1.5a10.155 10.155 0 0 1-1.854 6.426 6.358 6.358 0 0 1-5.251 2.246h-2.83v-18.98h2.889zM375.128 94h6.227l-10.638-28.437h-5.427L354.71 94h6.227l1.952-5.859h10.268zM368 72.75l3.573 10.644h-7.103zm22.932-7.187H384.2l8.276 14.1L383.986 94h6.814l5.465-9.961L401.73 94h6.812l-8.491-14.336 8.276-14.1h-6.734l-5.329 9.8z" transform="translate(-226.188 -65.188)"/></svg>