<svg width="119" height="38" viewBox="0 0 119 38" xmlns="http://www.w3.org/2000/svg"><title>logo</title><path d="M103.398 18.462a17.025 17.025 0 0 1-3.643 1.005 16.859 16.859 0 0 1-3.375 9.419 8.643 8.643 0 0 1-6.911 3.532 7.232 7.232 0 0 1-5.01-1.646c-.594-.533-1.043-1.213-1.349-2.042-.37.59-.794 1.145-1.263 1.661a6.99 6.99 0 0 1-1.71 1.323c-.5.287-1.04.502-1.6.64-.488.1-.985.15-1.483.147a4.868 4.868 0 0 1-3.844-1.4 5.028 5.028 0 0 1-1.232-3.454 29.2 29.2 0 0 1 .965-5.543c.49-1.772.813-3.585.966-5.417 0-1.467-.533-2.2-1.6-2.2a2.626 2.626 0 0 0-2.064 1.329 6.9 6.9 0 0 0-1.2 2.468L66.078 32.25h-6.194l.536-2.51c-.203.222-.415.436-.636.641a8.574 8.574 0 0 1-2 1.323 7.932 7.932 0 0 1-1.858.651 8.757 8.757 0 0 1-1.606.147 4.48 4.48 0 0 1-3.328-1.281 5.276 5.276 0 0 1-1.195-2.478c-1.716 2.506-3.91 3.759-6.585 3.759a4.164 4.164 0 0 1-2.961-1.039 4.573 4.573 0 0 1-1.3-3.034c-1.654 2.715-3.778 4.073-6.372 4.073a4.437 4.437 0 0 1-3.306-1.281 5.3 5.3 0 0 1-1.261-3.864c.019-.946.13-1.889.333-2.813l2.9-13.794h6.194l-3.107 14.607a6.15 6.15 0 0 0-.127 1.218c0 1.176.429 1.764 1.289 1.764 1.532 0 2.684-1.267 3.457-3.8l2.917-13.79h6.194l-3.09 14.608a6.57 6.57 0 0 0-.189 1.388c-.05.455.105.91.421 1.241.393.272.87.399 1.346.358a2.654 2.654 0 0 0 2.079-1.039 7.686 7.686 0 0 0 1.407-2.761h.028l2.578-12.069h-1.428l.357-1.722h1.407l1.3-5.942 6.324-.861-1.47 6.8h2.583l-.341 1.721h-2.583l-2.738 12.887a7.52 7.52 0 0 0-.142 1.388c-.049.453.1.906.409 1.241.388.273.86.399 1.333.357a3.216 3.216 0 0 0 2.31-1.081 6.492 6.492 0 0 0 1.542-2.612l4.619-21.649 6.356-.862-2.3 10.823a6.481 6.481 0 0 1 5.022-2.382 4.966 4.966 0 0 1 3.48 1.186 4.725 4.725 0 0 1 1.3 3.664 27.649 27.649 0 0 1-1.029 5.952 30.044 30.044 0 0 0-1.029 5.155 1.553 1.553 0 0 0 1.7 1.806c.779.034 1.529-.3 2.026-.9.365-.493.692-1.013.977-1.555a17.541 17.541 0 0 1 .175-2.689c.136-.939.338-1.866.607-2.776.285-.989.635-1.957 1.047-2.9.425-.963.956-1.877 1.582-2.723a12.846 12.846 0 0 1 2.137-2.283 9.3 9.3 0 0 1 2.776-1.561 9.886 9.886 0 0 1 3.425-.586c3.685 0 5.527 2.285 5.527 6.854.146.062.304.091.462.084a8.82 8.82 0 0 0 3.255-.764l.202-.083 1.213-5.709h6.194l-.568 2.67a32.912 32.912 0 0 1 1.608-1.314 8.831 8.831 0 0 1 1.6-.894 4.792 4.792 0 0 1 1.986-.463 2.7 2.7 0 0 1 2.184.955c.532.637.809 1.449.777 2.278a3.26 3.26 0 0 1-.809 2.184 2.835 2.835 0 0 1-2.278.945 1.7 1.7 0 0 1-1.06-.3 1.349 1.349 0 0 1-.5-.714 8.294 8.294 0 0 1-.188-.841 2.437 2.437 0 0 0-.23-.724.533.533 0 0 0-.51-.3 2.885 2.885 0 0 0-1.521.39 9.512 9.512 0 0 0-1.584 1.3l-3.473 16.325h-6.194l2.929-13.788zM.759 19.705a2.3 2.3 0 0 1-.758-1.859c0-1.47.833-2.72 2.5-3.748a11.758 11.758 0 0 1 6.278-1.543c.588 0 1.337.042 2.247.126a52.656 52.656 0 0 1 3.473-4.9 36.81 36.81 0 0 1 3.714-4.01A16.961 16.961 0 0 1 22.137 1a8.6 8.6 0 0 1 3.829-1 8.963 8.963 0 0 1 3.4.607L22.637 32.25h-6.194l3.308-15.613a17.8 17.8 0 0 0-5.766-1.544 75.215 75.215 0 0 0-4.01 10.8 34.062 34.062 0 0 0-1.575 8.85 4.26 4.26 0 0 0 .588 2.394c-.433 0-.787-.003-1.06-.01a9.789 9.789 0 0 1-1.081-.105 5.234 5.234 0 0 1-1.113-.262 5.092 5.092 0 0 1-.955-.5 2.715 2.715 0 0 1-.819-.808 4.534 4.534 0 0 1-.515-1.207 6.039 6.039 0 0 1-.21-1.659c.157-2.648.75-5.251 1.754-7.706a64.2 64.2 0 0 1 4.566-9.784c-2.855.182-4.535.924-5.039 2.226.19.08.327.25.368.451.128.28.196.584.2.892a1.4 1.4 0 0 1-.693 1.218 3.037 3.037 0 0 1-1.722.462 2.85 2.85 0 0 1-1.91-.64zM22.635 3.044L20.157 14.73a28.4 28.4 0 0 0-5.268-1.49c2.77-5.51 5.353-8.91 7.746-10.2v.004zm67.124 17.04a18.208 18.208 0 0 1 2.159-4.952c.92-1.437 1.856-2.156 2.811-2.157.476-.041.937.175 1.21.566.3.597.449 1.258.432 1.926a2.282 2.282 0 0 0-1.348 2.324c-.14.81.363 1.592 1.158 1.8a17.972 17.972 0 0 1-1.968 6.355c-.962 1.71-1.97 2.565-3.022 2.565a1.947 1.947 0 0 1-1.737-.7 5.479 5.479 0 0 1-.474-2.774c.038-1.679.301-3.345.783-4.953h-.004z" fill="#44C0C2" fill-rule="evenodd"/></svg>