<svg viewBox="0 0 24 24" xmlns="http://www.w3.org/2000/svg"><title>dribbble</title><path d="M17.923 5.298c-.161.23-1.51 2.042-4.695 3.236A47.813 47.813 0 0 0 9.886 3.29a8.947 8.947 0 0 1 8.037 2.008zm-5.312 6.779c-4.62 1.493-7.078 5.563-7.28 5.911a8.922 8.922 0 0 1-2.299-6.263c.392.008 4.733.064 9.206-1.275.256.502.501 1.011.726 1.52a9.96 9.96 0 0 0-.353.107zM11.985 0C5.365 0 0 5.366 0 11.985c0 6.62 5.366 11.985 11.985 11.985 6.62 0 11.985-5.366 11.985-11.985C23.97 5.365 18.604 0 11.985 0zm0 22.472c-5.782 0-10.487-4.704-10.487-10.487 0-5.782 4.705-10.487 10.487-10.487 5.783 0 10.487 4.705 10.487 10.487 0 5.783-4.704 10.487-10.487 10.487zm2.526-11.309c-.186-.436-.386-.87-.594-1.297 3.312-1.352 4.813-3.276 5.002-3.532a8.916 8.916 0 0 1 2.022 5.58c-.295-.062-3.256-.663-6.237-.288a36.511 36.511 0 0 0-.193-.463zm-3.013-2.09c-4.19 1.112-7.88 1.096-8.281 1.091a8.99 8.99 0 0 1 4.96-6.272 57.147 57.147 0 0 1 3.32 5.18zm2.016 4.398l.059-.02c1.258 3.268 1.778 6.007 1.911 6.793a8.91 8.91 0 0 1-3.499.712c-2.07 0-3.98-.706-5.498-1.89.161-.33 1.975-3.834 7.027-5.595zm1.736-.433c2.807-.45 5.273.286 5.58.383a8.973 8.973 0 0 1-3.84 6.003c-.092-.545-.569-3.167-1.74-6.386z" fill="#29323c"/></svg>