<svg viewBox="0 0 24 24" xmlns="http://www.w3.org/2000/svg"><title>googleplus</title><path d="M11.985 0C5.366 0 0 5.366 0 11.985S5.366 23.97 11.985 23.97 23.97 18.604 23.97 11.985C23.97 5.365 18.604 0 11.985 0zM8.641 20.05c-2.653 0-4.891-1.08-4.891-2.807 0-1.75 2.042-3.442 4.695-3.44l.828-.008c-.362-.352-.65-.785-.65-1.32 0-.318.102-.622.243-.893l-.442.015c-2.18 0-3.639-1.55-3.639-3.473 0-1.88 2.015-3.502 4.157-3.502h4.78l-1.073.773h-1.515c1.005.386 1.54 1.558 1.54 2.76 0 1.008-.559 1.876-1.348 2.494-.772.603-.917.855-.917 1.367 0 .438.827 1.181 1.258 1.488 1.263.893 1.67 1.721 1.67 3.104 0 1.726-1.671 3.441-4.696 3.441zm9.337-9.535v2.992H16.48v-2.992h-2.998V8.99h2.998V5.993h1.497v2.996h2.996v1.526h-2.996zM10.14 14.44c.995.691 1.71 1.082 1.91 1.873.037.16.058.325.058.493 0 1.393-.897 2.484-3.475 2.484-1.834 0-3.158-1.16-3.158-2.556 0-1.368 1.642-2.505 3.475-2.485a4.03 4.03 0 0 1 1.19.191zm.816-6.193c.215 1.618-.612 2.9-1.84 2.862-1.232-.036-2.402-1.377-2.615-2.994-.213-1.618.613-2.854 1.843-2.818 1.23.038 2.4 1.335 2.612 2.95z" fill="#525961"/></svg>