<svg viewBox="0 0 24 24" xmlns="http://www.w3.org/2000/svg"><title>linkedin</title><path d="M11.985 0C5.366 0 0 5.366 0 11.985S5.366 23.97 11.985 23.97 23.97 18.604 23.97 11.985C23.97 5.365 18.604 0 11.985 0zM8.989 17.79H5.993V7.303h2.996V17.79zM7.584 6.66a1.404 1.404 0 1 1 0-2.807 1.404 1.404 0 0 1 0 2.808zm11.892 11.13h-2.997v-6.484c0-.76-.217-1.291-1.15-1.291-1.548 0-1.846 1.291-1.846 1.291v6.484h-2.996V7.303h2.996v1.003a5.013 5.013 0 0 1 2.996-1.001c.971 0 2.997.581 2.997 4.093v6.392z" fill="#29323c"/></svg>