<svg xmlns="http://www.w3.org/2000/svg" width="81.219" height="29.19" viewBox="0 0 81.219 29.19"><defs><style>.cls-1{fill:#29323c;fill-rule:evenodd}</style></defs><path id="ZET" class="cls-1" d="M217.832 5431.2v7.44h3.409v-4.42H233.1l-15.554 19.25v3.89h19.104v-7.3h-3.408v4.37H221l15.745-19.34v-3.89h-18.913zm3.6 9.93l-3.457-2.01h-.624c.96.62 2.016 1.49 3.024 2.01h1.057zm10.176 16.76h-1.056l3.5 2.01h1.056zm-11.281-18.77h-1.056l3.457 2.01h1.056zm2.257 14.16l1.1.62h1.056l-1.824-1.05zm-.528.62h.336l-.24-.14zm1.632-1.96l-.384.38 2.736 1.58h.624l.144-.14zm10.273 5.95h-1.056l3.5 2.01h1.056zm-13.922 2.01H221l-3.5-2.01h-.432zm4.609 0h1.056l-3.5-2.01h-1.056zm-2.352 0h1.056l-3.5-2.01h-1.056zm1.2-2.01l3.5 2.01h1.056l-3.5-2.01H223.5zm3.408 0h-1.056l3.5 2.01h1.056zm3.552-14.26l-.336.38 3.121 1.83.336-.39zm2.257-2.78l-.336.43 3.12 1.77.336-.38zm.72-.92l-.336.39 3.168 1.82.336-.38zm1.68 3.65l-3.169-1.82-.336.43 3.169 1.82zm-10.369-3.26l-3.024-1.73v.53h-.1l3.12 1.82v-.62zm0-3.6h.816l-3.5-2.02h-.336v.43l3.024 1.73v-.14zm3.168 0l-3.5-2.02h-1.056l3.5 2.02h1.056zm-3.168 2.25l-3.024-1.72v.57l3.024 1.73v-.58zm2.016-4.27h-1.056l3.5 2.02h1.056zm-2.016 2.88l-3.024-1.73v.63l3.024 1.73v-.63zm11.569 20.31h-1.056l3.5 2.01h1.056zm-1.968-13.4l-3.169-1.82-.336.43 3.169 1.83zm-5.281 6.49l-3.12-1.83-.336.43 3.12 1.83zm-.72.91l-3.168-1.83-.336.44 3.168 1.82zm-.768.96l-3.168-1.83-.336.39 3.168 1.82zm12.673-19.25v-.63l-3.024-1.72v.62zm-3.792 2.64l-.336.38 3.168 1.83.336-.39zm-5.329-.39l-2.016-1.15h-1.056l2.736 1.59zm.336-1.15h-1.056l1.1.63.336-.39zm1.393 11.67l-3.169-1.83-.336.43 3.169 1.78zm2.832-9.22l-.336.43 3.168 1.83.336-.44zm-3.6 10.13l-3.168-1.83-.336.44 3.168 1.82zm2.881-9.22l-.336.43 3.12 1.83.384-.43zm-1.1 1.35l3.168 1.82.336-.43-3.168-1.83zm3.36-5.43v.58l3.024 1.73v-.58zm-.1 16.23v.62l3.024 1.73v-.62zm0 2.69v.62l3.024 1.73v-.58zm0-1.35v.63l3.024 1.72v-.62zm-8.929-5.18l-.336.43 3.12 1.82.336-.43zm9.025-11.09l-.336.43 3.168 1.82.192-.28v-.2zm0-2.69v.62l3.024 1.73v-.62zm-6.625 16.56l-3.168-1.82-.336.38 3.168 1.83zm-.768.91l-3.168-1.82-.336.38 3.168 1.83zm7.3 4.23v.62l3.024 1.73v-.62zm0 1.34v.63l3.024 1.72v-.62zm0 1.35v.62l3.024 1.73v-.58zm-7.873.91h-1.06l3.5 2.01h1.057zm18.335-23.76v20.21h-2.5v2.97h18.77v-7.39h-3.553v4.42h-9.36v-8.89h7.872v-2.97h-7.872v-8.35h9.36v4.41h3.553v-7.39H245.1v2.98h2.5zm5.521 25.68l-3.457-2.02H248.6l3.457 2.02h1.056zm-2.352 0l-3.457-2.02h-1.056l3.456 2.02h1.057zm3.6-2.02h-1.056l3.456 2.02h1.056zm13.009-24.48v-.62l-3.024-1.73v.62zm-22.418 24.48h-.336l2.976 2.02h.816zm-.192-23.18h-.144l2.448 1.68v-.34zm17.57 11.52l-3.025-1.78v.62l3.025 1.73v-.57zm0-.77v-.63l-3.025-1.72v.62zm-.529-4.99l1.009.67h.144zm-.384 17.42h-1.056l3.457 2.02h1.056zm-.624-18.77l3.457 2.02h1.056l-3.457-2.02h-1.056zm1.537 8.93v-.48l-3.025-1.73v.19h-.624l3.457 2.02h.192zm-7.873-11.33h.864l-3.456-2.01h-.384v.38l2.976 1.78v-.15zm-2.976.48v.63l2.976 1.72v-.62zm-4.417-2.49h-1.008l1.008.57v-.57zm20.306 6.43v-.19l-3.168-1.83h-1.056l3.456 2.02h.768zm-15.889 12.77h.672l-.672-.39v.39zm12.865-16.04v.58l3.024 1.78v-.63zm-12.337 20.02h-1.056l3.456 2.02h1.056zm15.361-22.37l-3.024-1.73v.58l3.024 1.78v-.63zm0-.77v-.57l-3.024-1.78v.63zm0 2.12l-3.024-1.73v.62l3.024 1.73v-.62zm0 1.39l-3.024-1.78v.63l3.024 1.72v-.57zm-7.585-1.54v-.14l-3.216-1.87h-1.056l3.456 2.01h.816zm0-1.49l-.864-.52h-1.056l1.92 1.15v-.63zm-5.328 5.09l-2.976-1.73v.58l2.976 1.73v-.58zm0-2.73l-2.976-1.73v.62l2.976 1.73v-.62zm3.216-.87l-3.456-2.01h-1.056l3.456 2.01h1.056zm1.392 21.17h-1.056l3.456 2.02h1.057zm-4.608-3.98l-2.976-1.73v.58l1.968 1.15h1.008zm5.712 6l-3.456-2.02h-1.056l3.456 2.02h1.056zm-5.712-11.43l-2.976-1.77v.62l2.976 1.73v-.58zm4.032-.43l-3.456-2.02h-1.056l3.456 2.02h1.056zm-4.032 1.78l-2.976-1.73v.58l2.976 1.77v-.62zm0 1.34l-2.976-1.73v.63l2.976 1.73v-.63zm0 1.35l-2.976-1.73v.62l2.976 1.73v-.62zm1.68-4.47l-3.456-2.02h-1.056l3.456 2.02h1.056zm8.209 6.1v.62l3.024 1.73v-.62zm0 2.73v.63l3.024 1.73v-.63zm-1.632 1.01l3.456 2.02h1.056l-3.456-2.02h-1.056zm-.384-13.78v-.04l-3.025-1.97v.24zm2.016 7.35v.58l3.024 1.77v-.62zm-10.228-9.36h.336v-.43l-2.976-1.73v.62zm-1.3 0l-1.344-.82v.63l.288.19h1.056zm11.521 7.97v.62l3.024 1.73v-.58zm-3.5-2.02l-3.456-2.02h-1.056l3.456 2.02h1.056zm3.5 7.49v.58l3.024 1.72v-.57zm3.024-1.01l-3.024-1.73v.63l3.024 1.73v-.63zm19.679 2.88v-2.93h-2.688v-20.4h6.912v4.08h3.5v-6.91h-23.33v6.91H275v-4.08h5.952v20.4h-2.4v2.93h8.5zm-13.1-16.75h.768l-3.457-1.97h-.288zm-1.392-1.97l3.456 1.97h1.056l-3.456-1.97h-1.056zm5.952 1.44l-3.024-1.73v.29h-.581l3.456 1.97h.144v-.53zm19.778-6.96v-.38a23.877 23.877 0 0 0-2.976-1.97v.62zm-18.674 1.44l.864.48v-.48h-.864zm7.3 25.35l-3.456-2.02h-1.057l3.457 2.02h1.047zm2.352 0l-3.456-2.02h-1.056l3.456 2.02h1.056zm-8.785-24.15l-2.16-1.2h-1.056l3.216 1.82v-.62zm10.081 21.41v-.62l-3.024-1.73v.62zm-3.024-1.01v.63l3.024 1.72v-.62zm-2.688-4.27v.62l2.448 1.4h.24v.14l1.68.96-1.344-.86v-.53zm0-17.04l3.024 1.73v-.05h1.008l-3.5-1.97h-.528v.29zm2.688 22.7v.34h-.433l3.456 1.97v-.58zm-2.976 2.36l-3.457-2.02h-1.06l3.457 2.02h1.056zm.288-24.29v.57l3.024 1.73v-.58zm0 18.24l.1.05h1.056l-1.152-.63v.58zm0-7.4v.63l3.024 1.73v-.63zm3.024-7.77l-3.024-1.73v.62l3.024 1.73v-.62zm-3.024 5.04v.62l3.024 1.73v-.58zm0-2.69v.62l3.024 1.73v-.62zm0 1.34v.63l3.024 1.73v-.63zm0 2.74v.58l3.024 1.77v-.62zm3.024-5.09l-3.024-1.73v.63l3.024 1.73v-.63zm0 1.39l-3.024-1.72v.57l3.024 1.73v-.58zm-3.024 6.39v.62l3.024 1.73v-.62zm0 1.39v.58l3.024 1.77v-.62zm3.024 3.07l-3.024-1.72v.62l3.024 1.73v-.63zm6.912-13.63h-1.056l3.457 1.97h1.1zm.529-1.1v.62l2.976 1.73v-.63zm0-1.35v.63l2.976 1.72v-.62zm-2.881 2.45h-1.056l3.456 1.97h1.105zm-5.76-4.08l3.5 1.97h.576v-.24l-3.024-1.73h-1.056zm2.352 0l1.728.96v-.58l-.672-.38h-1.056zm-6.817 25.35l-3.456-2.02h-.672a31.458 31.458 0 0 0 3.072 2.02h1.052zm-6.72-22.9v.57l3.024 1.73v-.57zm19.826-2.16v.57l2.976 1.78v-.62zm-15.89 1.68l-3.456-1.97h-.48v.34l3.024 1.72v-.09h.912zm-.912.81l-3.024-1.72v.62l3.024 1.73v-.63zm16.8-5.23v.63l2.976 1.72v-.62zm2.976 3.12l-2.976-1.77v.62l2.976 1.73v-.58z" transform="translate(-217.062 -5430.72)"/></svg>