<svg xmlns="http://www.w3.org/2000/svg" width="83.938" height="30.281" viewBox="0 0 83.938 30.281"><defs><style>.cls-1{fill:#e8e8e8;fill-rule:evenodd;filter:url(#filter)}</style><filter id="filter" x="217.062" y="32.719" width="83.938" height="30.281" filterUnits="userSpaceOnUse"><feOffset result="offset" dx="1.827" dy=".813" in="SourceAlpha"/><feGaussianBlur result="blur"/><feFlood result="flood" flood-opacity=".5"/><feComposite result="composite" operator="in" in2="blur"/><feBlend result="blend" in="SourceGraphic"/></filter></defs><path id="ZET" class="cls-1" d="M217.832 33.2v7.441h3.409v-4.419H233.1l-15.554 19.25v3.888h19.104v-7.3h-3.408v4.368H221l15.745-19.346V33.2h-18.913zm3.6 9.937l-3.457-2.016h-.624c.96.624 2.016 1.488 3.024 2.016h1.057zm10.176 16.753h-1.056l3.5 2.016h1.056zm-11.281-18.77h-1.056l3.457 2.016h1.056zm2.257 14.161l1.1.624h1.056l-1.824-1.056zm-.528.624h.336l-.24-.144zm1.632-1.968l-.384.384 2.736 1.584h.624l.144-.144zm10.273 5.953h-1.056l3.5 2.016h1.056zM220.04 61.9h.96l-3.5-2.016h-.432zm4.609 0h1.056l-3.5-2.016h-1.056zm-2.352 0h1.056l-3.5-2.016h-1.056zm1.2-2.016L227 61.9h1.056l-3.5-2.016H223.5zm3.408 0h-1.056l3.5 2.016h1.056zm3.552-14.257l-.336.384 3.121 1.824.336-.384zm2.257-2.784l-.336.432 3.12 1.776.336-.384zm.72-.912l-.336.384 3.168 1.824.336-.384zm1.68 3.648l-3.169-1.824-.336.432 3.169 1.824zm-10.369-3.264l-3.024-1.728v.528h-.1l3.12 1.824v-.621zm0-3.6h.816l-3.5-2.016h-.336v.432l3.024 1.728v-.141zm3.168 0l-3.5-2.016h-1.056l3.5 2.016h1.056zm-3.168 2.256l-3.024-1.728v.576l3.024 1.728v-.573zm2.016-4.272h-1.056l3.5 2.016h1.056zm-2.016 2.88l-3.024-1.728v.624l3.024 1.728v-.621zm11.569 20.306h-1.056l3.5 2.016h1.056zm-1.968-13.393l-3.169-1.824-.336.432 3.169 1.824zm-5.281 6.48l-3.12-1.824-.336.432 3.12 1.824zm-.72.912l-3.168-1.824-.336.432 3.168 1.824zm-.768.96l-3.168-1.824-.336.384 3.168 1.824zM240.25 35.6v-.626l-3.024-1.728v.624zm-3.792 2.64l-.336.384 3.168 1.824.336-.384zm-5.329-.384l-2.016-1.156h-1.056l2.736 1.584zm.336-1.152h-1.056l1.1.624.336-.384zm1.393 11.665l-3.169-1.824-.336.432 3.169 1.776zm2.832-9.217l-.336.432 3.168 1.824.336-.432zm-3.6 10.129l-3.168-1.824-.336.432 3.168 1.824zm2.881-9.217l-.336.432 3.12 1.824.384-.432zm-1.1 1.344l3.168 1.824.336-.432-3.175-1.826zm3.36-5.424v.576l3.024 1.728v-.578zm-.1 16.225v.624l3.024 1.728v-.626zm0 2.688v.624l3.024 1.728v-.577zm0-1.344v.624l3.024 1.728v-.626zm-8.931-5.186l-.336.432 3.12 1.824.336-.432zm9.025-11.089l-.336.432 3.168 1.824.192-.288v-.192zm0-2.688v.624l3.024 1.728v-.624zM230.6 51.151l-3.168-1.824-.336.384 3.168 1.824zm-.768.912l-3.168-1.824-.336.384 3.168 1.824zm7.3 4.224v.624l3.024 1.728v-.623zm0 1.344v.624l3.024 1.728v-.623zm0 1.344v.625l3.024 1.728v-.576zm-7.873.912H228.2l3.5 2.016h1.057zm18.335-23.762v20.21h-2.5v2.976h18.77v-7.392h-3.553v4.416h-9.36v-8.88h7.872v-2.976h-7.872v-8.353h9.36v4.416h3.553V33.15H245.1v2.976h2.5zm5.521 25.682l-3.457-2.016H248.6l3.457 2.016h1.056zm-2.352 0l-3.463-2.015h-1.056l3.456 2.016h1.057zm3.6-2.016h-1.056l3.456 2.016h1.056zM267.37 35.31v-.624l-3.024-1.728v.624zm-22.418 24.482h-.336l2.976 2.016h.816zm-.192-23.186h-.144l2.448 1.68v-.336zm17.57 11.521l-3.025-1.776v.624l3.025 1.725v-.573zm0-.768v-.624l-3.025-1.728v.624zm-.53-4.993l1.009.672h.144zm-.384 17.426h-1.056l3.457 2.016h1.056zm-.624-18.77l3.457 2.016h1.056l-3.457-2.016h-1.056zm1.537 8.929v-.48l-3.025-1.728v.192h-.624l3.457 2.016h.192zm-7.873-11.329h.864l-3.456-2.016h-.384v.384l2.976 1.776v-.144zm-2.976.48v.624l2.976 1.728v-.624zm-4.417-2.5h-1.008l1.008.576v-.572zm20.306 6.433v-.189l-3.169-1.824h-1.056l3.456 2.016h.768zm-15.888 12.773h.672l-.672-.384v.384zm12.865-16.033v.575l3.024 1.776V41.5zm-12.337 20.017h-1.056l3.456 2.016h1.056zm15.361-22.37l-3.024-1.728v.576l3.024 1.776v-.624zm0-.768v-.576l-3.024-1.778v.624zm0 2.112l-3.024-1.728v.624l3.024 1.728v-.624zm0 1.392l-3.024-1.776v.624l3.024 1.728v-.576zm-7.585-1.536v-.144l-3.216-1.872h-1.056l3.456 2.016h.816zm0-1.488l-.864-.528h-1.056l1.92 1.152v-.624zm-5.328 5.088l-2.976-1.728v.576l2.976 1.728v-.576zm0-2.736l-2.976-1.728v.624l2.976 1.728v-.624zm3.216-.864l-3.456-2.016h-1.056l3.456 2.016h1.056zm1.392 21.17h-1.056l3.456 2.016h1.057zm-4.608-3.984l-2.976-1.728v.576l1.968 1.152h1.008zm5.712 6l-3.456-2.016h-1.056l3.456 2.016h1.056zm-5.712-11.425l-2.976-1.776v.624l2.976 1.728v-.576zm4.032-.432l-3.456-2.016h-1.056l3.456 2.016h1.056zm-4.032 1.776L251.481 50v.576l2.976 1.776v-.625zm0 1.344l-2.976-1.728v.624l2.976 1.728v-.624zm0 1.344l-2.976-1.728v.624l2.976 1.728v-.624zm1.68-4.464l-3.456-2.016h-1.056l3.456 2.016h1.056zm8.209 6.1v.624l3.024 1.725v-.624zm0 2.736v.624l3.024 1.728v-.627zm-1.632 1.008l3.456 2.016h1.056l-3.456-2.016h-1.056zm-.384-13.78v-.048L259.305 44v.24zm2.016 7.345v.576l3.024 1.776v-.625zM254.121 44h.336v-.434l-2.976-1.728v.624zm-1.3 0l-1.344-.816v.624l.292.192h1.056zm11.521 7.969v.624l3.024 1.728v-.578zm-3.5-2.016l-3.456-2.016h-1.056l3.456 2.016h1.056zm3.5 7.489v.576l3.024 1.728v-.578zm3.024-1.008l-3.02-1.734v.624l3.024 1.728v-.62zm19.679 2.88v-2.93h-2.688v-20.4h6.912v4.08h3.5V33.15h-23.33v6.913H275v-4.08h5.952v20.4h-2.4v2.928h8.5zm-13.1-16.753h.768l-3.457-1.968h-.288zm-1.392-1.968l3.456 1.968h1.056l-3.456-1.968h-1.056zm5.952 1.44L275.48 40.3v.29h-.58l3.456 1.968h.144v-.528zm19.778-6.961v-.386a24.551 24.551 0 0 0-2.976-1.968v.624zm-18.674 1.44l.864.48v-.482h-.864zm7.3 25.346l-3.456-2.016h-1.057l3.457 2.016h1.047zm2.352 0L285.8 59.84h-1.056l3.456 2.016h1.056zm-8.789-24.148l-2.16-1.2h-1.056l3.216 1.824v-.624zm10.081 21.41v-.62l-3.024-1.728v.624zm-3.024-1.008v.624l3.024 1.728v-.624zm-2.688-4.272v.624l2.448 1.392h.24V56l1.68.96-1.344-.864v-.529zm0-17.041l3.024 1.728v-.049h1.008l-3.5-1.968h-.528v.29zm2.688 22.701v.34h-.429l3.456 1.968v-.576zm-2.976 2.352L281.1 59.84h-1.06l3.457 2.016h1.056zm.288-24.29v.576l3.024 1.728v-.572zm0 18.242l.1.048h1.056l-1.152-.624v.576zm0-7.393v.624l3.024 1.728v-.62zm3.024-7.777l-3.024-1.728v.624l3.024 1.728v-.62zm-3.024 5.04v.626l3.024 1.728v-.573zm0-2.688v.624l3.024 1.728v-.619zm0 1.344v.624l3.024 1.728v-.619zm0 2.736v.576l3.024 1.776V48.8zm3.024-5.088l-3.024-1.728v.624l3.024 1.728v-.62zm0 1.392l-3.024-1.728v.576l3.024 1.728v-.572zm-3.024 6.384v.624l3.024 1.728v-.619zm0 1.392v.576l3.024 1.776v-.619zm3.024 3.072l-3.024-1.718v.624l3.024 1.728v-.629zm6.912-13.633h-1.056l3.457 1.968h1.1zm.529-1.1v.625l2.976 1.728v-.624zm0-1.344v.624l2.976 1.728v-.623zm-2.881 2.448h-1.056l3.456 1.968h1.105zm-5.76-4.08l3.5 1.968h.576v-.24l-3.024-1.728h-1.056zm2.352 0l1.728.96v-.575l-.672-.384h-1.056zM282.2 61.856l-3.456-2.016h-.672a30.7 30.7 0 0 0 3.072 2.016h1.056zm-6.72-22.9v.576l3.024 1.728v-.574zm19.826-2.16v.576l2.976 1.776v-.622zm-15.89 1.68l-3.456-1.966h-.48v.336l3.024 1.728v-.1h.912zm-.912.816l-3.024-1.728v.626l3.024 1.728v-.624zm16.8-5.232v.624l2.976 1.728v-.622zm2.976 3.12l-2.976-1.776v.626l2.976 1.728v-.576z" transform="translate(-217.062 -32.719)"/></svg>