<svg viewBox="0 0 24 19" xmlns="http://www.w3.org/2000/svg"><title>mail-icon</title><g fill="#29323c"><path d="M2.302 5.847c.303.214 1.218.85 2.743 1.907a671.144 671.144 0 0 1 3.507 2.442l.568.408c.29.21.531.38.723.509.192.13.424.274.696.435.272.16.529.28.77.36.24.081.464.121.669.121h.027c.205 0 .428-.04.669-.12.24-.08.498-.201.77-.361.272-.161.503-.306.695-.435.192-.13.433-.299.723-.509.29-.21.48-.345.569-.408.82-.571 2.908-2.02 6.263-4.35A6.358 6.358 0 0 0 23.327 4.2c.437-.642.655-1.315.655-2.02 0-.59-.212-1.093-.635-1.513A2.068 2.068 0 0 0 21.84.038H2.14C1.454.038.926.27.555.734.185 1.198 0 1.778 0 2.474c0 .562.245 1.171.736 1.827.49.656 1.013 1.171 1.566 1.546z"/><path d="M22.644 7.279c-2.926 1.98-5.148 3.52-6.665 4.617-.508.374-.92.667-1.237.876-.317.21-.739.424-1.265.643-.526.218-1.017.327-1.472.327h-.027c-.455 0-.946-.109-1.472-.327-.527-.219-.948-.433-1.265-.643a32.06 32.06 0 0 1-1.238-.876c-1.204-.883-3.421-2.423-6.651-4.617A7.089 7.089 0 0 1 0 6.114V16.74c0 .59.21 1.093.629 1.513.42.419.923.629 1.512.629h19.7c.59 0 1.093-.21 1.513-.63.419-.419.629-.923.629-1.512V6.114a7.38 7.38 0 0 1-1.339 1.165z"/></g></svg>