<svg width="16" height="13" viewBox="0 0 16 13" xmlns="http://www.w3.org/2000/svg"><title>quote</title><path d="M1.642 12.205c-.13.088-.46.166-.652-.047l-.354-.446c-.172-.29.036-.56.17-.67.64-.531 1.105-.941 1.395-1.232.569-.598.99-1.197 1.267-1.794.063-.136-.099-.223-.183-.25C1.19 7.077.14 5.865.14 4.13c0-1.022.34-1.853 1.018-2.492C1.838 1 2.688.681 3.71.681c.91 0 1.718.415 2.42 1.246.687.782 1.03 1.63 1.03 2.54 0 2.668-1.839 5.248-5.518 7.738zm7.98 0c-.132.088-.46.166-.652-.047l-.355-.446c-.172-.29.036-.56.17-.67.64-.531 1.105-.941 1.395-1.232.569-.598.99-1.197 1.267-1.794.064-.136-.098-.223-.183-.25-2.096-.688-3.145-1.9-3.145-3.635 0-1.022.34-1.853 1.019-2.492C9.817 1 10.668.681 11.69.681c.91 0 1.717.415 2.42 1.246.687.782 1.03 1.63 1.03 2.54 0 2.668-1.84 5.248-5.519 7.738z" fill="#ABAEB2"/></svg>