<svg xmlns="http://www.w3.org/2000/svg" xmlns:xlink="http://www.w3.org/1999/xlink" width="216" height="616" viewBox="0 0 216 616"><svg width="72" height="47" viewBox="0 0 72 47" id="agency"><title>graphics-tablet</title><g fill="#FFF" fill-rule="evenodd"><path d="M69.934 46.918H2.066a1.77 1.77 0 0 1-1.77-1.77V2.066c0-.978.792-1.77 1.77-1.77h67.868c.978 0 1.77.792 1.77 1.77v43.082a1.77 1.77 0 0 1-1.77 1.77zM3.836 43.377h64.328V3.837H3.836v39.54z"/><path d="M62.852 39.836H18.59a1.18 1.18 0 0 1-1.18-1.18V8.557c0-.651.529-1.18 1.18-1.18h44.262c.652 0 1.18.529 1.18 1.18v30.099a1.18 1.18 0 0 1-1.18 1.18zm-43.082-2.36h41.902V9.737H19.77v27.737zm-9.147-8.853a5.022 5.022 0 0 1-5.016-5.016 5.022 5.022 0 0 1 5.016-5.017 5.022 5.022 0 0 1 5.016 5.017 5.022 5.022 0 0 1-5.016 5.016zm0-7.672a2.659 2.659 0 0 0-2.656 2.656 2.659 2.659 0 0 0 2.656 2.655 2.659 2.659 0 0 0 2.656-2.655 2.659 2.659 0 0 0-2.656-2.656zm3.836-7.672H6.787a1.18 1.18 0 0 1 0-2.361h7.672a1.18 1.18 0 0 1 0 2.36zm0 3.541H6.787a1.18 1.18 0 0 1 0-2.361h7.672a1.18 1.18 0 0 1 0 2.36zm0 15.934H6.787a1.18 1.18 0 0 1 0-2.36h7.672a1.18 1.18 0 0 1 0 2.36zm0 3.541H6.787a1.18 1.18 0 0 1 0-2.36h7.672a1.18 1.18 0 0 1 0 2.36zm0 3.541H6.787a1.18 1.18 0 0 1 0-2.36h7.672a1.18 1.18 0 0 1 0 2.36zm0-30.098H6.787a1.18 1.18 0 0 1 0-2.361h7.672a1.18 1.18 0 0 1 0 2.36z"/><path d="M41.417 34.012a1.18 1.18 0 0 1-1.173-1.315l.49-4.272c.023-.206.1-.402.224-.568l10.815-14.595a1.97 1.97 0 0 1 1.577-.795c.424 0 .828.134 1.168.386l2.199 1.629c.42.311.695.768.772 1.287a1.947 1.947 0 0 1-.364 1.457L46.31 31.822a1.185 1.185 0 0 1-.479.38l-3.945 1.713c-.15.065-.31.097-.47.097zm1.625-5.004l-.22 1.928 1.778-.773 10.39-14.022-1.558-1.154-10.39 14.021z"/><path d="M45.622 30.7a.583.583 0 0 1-.35-.115l-3.141-2.327a.592.592 0 0 1-.123-.826l.511-.69a.59.59 0 0 1 .825-.122l3.14 2.326a.592.592 0 0 1 .124.826l-.511.69a.59.59 0 0 1-.475.238z"/></g></svg><svg width="61" height="64" viewBox="0 0 61 64" id="cutting-edge" y="47"><title>icon</title><path d="M32.018 27.263c-2.453 0-4.449 2.011-4.449 4.482s1.996 4.482 4.449 4.482 4.449-2.011 4.449-4.482-1.996-4.482-4.449-4.482m0 12.246c-4.249 0-7.707-3.483-7.707-7.764 0-4.281 3.458-7.764 7.707-7.764s7.707 3.483 7.707 7.764c0 4.281-3.458 7.764-7.707 7.764m23.298 8.164a2.435 2.435 0 0 0-2.423 2.44 2.435 2.435 0 0 0 2.423 2.441 2.435 2.435 0 0 0 2.423-2.441 2.435 2.435 0 0 0-2.423-2.44m-1.515-12.89c-1.892 2.14-4.172 4.264-6.822 6.322-.525 3.315-1.282 6.385-2.23 9.132 1.748.218 3.394.268 4.899.135-.003-.087-.013-.172-.013-.259 0-3.155 2.549-5.722 5.681-5.722.75 0 1.463.15 2.119.416.476-2.7-.873-6.22-3.634-10.024m-6.248 1.6a42.638 42.638 0 0 0 4.177-4.2 52.934 52.934 0 0 0-3.929-4.055c.017.604.028 1.213.028 1.831 0 2.203-.095 4.349-.276 6.424m8.239-19.838c-1.812-2.858-5.45-4.243-10.238-3.904-.124.009-.252.025-.377.036 1.123 3.145 1.917 6.785 2.329 10.807 2.376 2.008 4.472 4.048 6.256 6.075 3.364-4.881 4.235-9.534 2.03-13.014m-11.398 8.614a78.958 78.958 0 0 0-7.098-5.131 63.062 63.062 0 0 0-5.366-3.096 63.892 63.892 0 0 0-5.349 3.096 64.21 64.21 0 0 0-7.592 5.714c-.023 1.303-.03 2.704-.03 4.217 0 3.208.204 6.229.57 9.036a63.938 63.938 0 0 0 3.984 2.78 65.74 65.74 0 0 0 8.652 4.704 89.886 89.886 0 0 0 8.199-4.704 65.087 65.087 0 0 0 3.599-2.487c.389-2.89.608-6.009.608-9.329 0-1.678-.062-3.277-.177-4.8m-2.489-11.972c-1.996.438-4.095 1.115-6.269 2.019a69.145 69.145 0 0 1 3.413 2.056 84.972 84.972 0 0 1 4.805 3.329c-.461-2.802-1.128-5.271-1.949-7.404M31.493 3.282c-1.41 0-2.066.062-2.918.588a5.726 5.726 0 0 1-2.111 7.179 48.958 48.958 0 0 1 5.467 2.224c2.971-1.419 5.851-2.47 8.583-3.133-2.462-4.536-5.751-6.858-9.021-6.858M20.985 6.233a2.435 2.435 0 0 0 2.423 2.441 2.435 2.435 0 0 0 2.423-2.441 2.435 2.435 0 0 0-2.423-2.441 2.435 2.435 0 0 0-2.423 2.441m-.141 6.724c-.98 2.31-1.459 4.944-1.687 8.368a69.549 69.549 0 0 1 9.066-6.113c-2.607-1.083-5.088-1.837-7.379-2.255M8.085 16.546c-2.259 3.563-1.29 8.359 2.276 13.369a54.143 54.143 0 0 1 5.404-5.697c.139-4.903.56-8.499 1.719-11.641-4.285-.148-7.613 1.15-9.399 3.969m7.617 12.313a47.906 47.906 0 0 0-3.245 3.688 42.842 42.842 0 0 0 3.492 3.507 74.532 74.532 0 0 1-.248-6.095l.001-1.1M8.011 39.982c-.036.093-.083.18-.133.262a5.733 5.733 0 0 1 1.712 9.419c2.147 2.235 6.134 2.157 9.534 1.537-1.14-3.064-2.03-6.573-2.617-10.397-2.293-1.811-4.3-3.671-6.009-5.545-1.052 1.607-1.893 3.194-2.487 4.724m-2.33 3.098a2.435 2.435 0 0 0-2.423 2.441 2.435 2.435 0 0 0 2.423 2.441 2.435 2.435 0 0 0 2.423-2.441 2.435 2.435 0 0 0-2.423-2.441m16.622 7.371c1.894-.542 3.914-1.277 6.016-2.179a69.294 69.294 0 0 1-8.012-4.692c.537 2.534 1.214 4.837 1.996 6.871m9.462 10.267c2.997 0 6.096-2.908 8.495-7.996-2.575-.615-5.269-1.505-8.002-2.645-3.02 1.444-5.927 2.592-8.621 3.396 2.343 4.621 5.281 7.245 8.128 7.245m11.404-16.871c-.347.233-.695.465-1.052.694a95.578 95.578 0 0 1-5.973 3.548 45.12 45.12 0 0 0 5.375 1.578 46.395 46.395 0 0 0 1.65-5.82m16.984 3.264l-.004.008c.534.873.848 1.896.848 2.994 0 3.156-2.548 5.723-5.681 5.723a5.654 5.654 0 0 1-4.538-2.295c-.026.005-.049.014-.075.018-.864.11-1.771.164-2.714.164-1.411 0-2.906-.122-4.462-.358C40.616 59.946 36.455 64 31.765 64c-4.466 0-8.452-3.677-11.337-9.711-1.923.396-3.613.572-5.089.572-4.768 0-7.355-1.8-8.76-3.696a5.542 5.542 0 0 1-.898.079C2.548 51.244 0 48.677 0 45.521c0-2.902 2.157-5.3 4.94-5.668a1.642 1.642 0 0 1 .036-1.066c.78-2.011 1.912-4.078 3.337-6.147-4.886-6.443-6.14-12.865-2.974-17.861 2.606-4.112 7.347-5.886 13.322-5.411a5.712 5.712 0 0 1-.934-3.135c0-3.156 2.548-5.723 5.681-5.723 1.102 0 2.128.323 3 .872C28.062.228 29.309 0 31.493 0c5.149 0 9.464 3.533 12.365 9.519.495-.063.985-.117 1.467-.152 6.033-.431 10.728 1.493 13.213 5.412 3.091 4.877 1.968 11.112-2.633 17.399 4.203 5.593 5.863 10.913 4.248 14.933" fill="#FEFEFE" fill-rule="evenodd"/></svg><svg width="70" height="65" viewBox="0 0 70 65" id="enterprise" y="111"><title>Factory</title><g fill="#FFF" fill-rule="evenodd"><path d="M63.347 58.14H33.264a3.475 3.475 0 0 1-3.47-3.47V37.892c0-1.663 1.026-3.636 2.39-4.59l7.777-5.445c.531-.372 1.07-.56 1.602-.56 1.018 0 2.115.78 2.115 2.495v3.47c0 .033 0 .062.002.088l.073-.048 7.779-5.445c.53-.372 1.07-.56 1.6-.56 1.02 0 2.116.78 2.116 2.494v3.471l.002.088c.023-.014.047-.03.074-.049l7.778-5.445c.53-.372 1.07-.56 1.601-.56 1.019 0 2.115.78 2.115 2.495v24.876a3.475 3.475 0 0 1-3.47 3.472zM41.361 29.706c-.022.014-.047.03-.073.049L33.51 35.2c-.734.513-1.403 1.797-1.403 2.693v16.776c0 .639.52 1.157 1.157 1.157h30.083c.638 0 1.157-.518 1.157-1.157V29.793l-.002-.087c-.023.014-.047.03-.074.049L56.65 35.2c-.53.372-1.07.56-1.601.56-1.019 0-2.115-.78-2.115-2.495v-3.471l-.002-.087c-.023.013-.047.03-.074.048L45.08 35.2c-.531.372-1.07.56-1.601.56-1.02 0-2.115-.78-2.115-2.494v-3.471c0-.033-.002-.062-.003-.089z"/><path d="M45.992 58.14h-7.52a1.157 1.157 0 0 1-1.158-1.157V40.207c0-.64.518-1.157 1.157-1.157h7.52c.64 0 1.158.518 1.158 1.157v16.776c0 .64-.519 1.157-1.157 1.157zm-6.364-2.314h5.207V41.364h-5.207v14.462zM58.14 58.14h-7.52a1.157 1.157 0 0 1-1.157-1.157V40.207c0-.64.518-1.157 1.157-1.157h7.52c.64 0 1.158.518 1.158 1.157v16.776c0 .64-.519 1.157-1.158 1.157zm-6.363-2.314h5.206V41.364h-5.206v14.462zM30.95 58.14H4.34a1.157 1.157 0 0 1-1.157-1.157V46.57c0-.638.518-1.157 1.157-1.157h26.61c.64 0 1.157.519 1.157 1.157v10.413c0 .64-.517 1.157-1.157 1.157zM5.496 55.826h24.297v-8.099H5.496v8.1z"/><path d="M17.656 46.57H4.339a1.157 1.157 0 0 1-1.155-1.231L5.498 9.47a1.157 1.157 0 0 1 1.155-1.083h8.678c.61 0 1.115.474 1.154 1.083l2.303 35.704a1.156 1.156 0 0 1-1.133 1.395zM5.573 44.256H16.41l-2.165-33.554H7.738L5.573 44.256z"/><path d="M30.961 46.57H17.645a1.155 1.155 0 0 1-1.151-1.275l2.314-22.562c.06-.59.558-1.039 1.15-1.039h8.678c.593 0 1.09.449 1.151 1.04l2.298 22.399a1.157 1.157 0 0 1-1.123 1.438zm-12.034-2.314h10.741l-2.076-20.248h-6.589l-2.076 20.248z"/><path d="M30.95 51.198H4.34a1.157 1.157 0 0 1-1.157-1.157v-4.628c0-.638.518-1.157 1.157-1.157h26.61c.64 0 1.157.519 1.157 1.157v4.628c0 .64-.517 1.157-1.157 1.157zM5.496 48.884h24.297V46.57H5.496v2.314zm62.479 15.62H2.025c-.64 0-1.157-.518-1.157-1.157v-6.942c0-.639.518-1.157 1.157-1.157h65.95c.639 0 1.157.518 1.157 1.157v6.942c0 .64-.518 1.157-1.157 1.157zM3.182 62.19h63.636v-4.628H3.182v4.628z"/><path d="M67.975 64.504H2.025A1.735 1.735 0 0 1 .289 62.77v-6.943c0-.958.777-1.735 1.736-1.735h.578v-8.678c0-.037.001-.074.004-.111L4.92 9.434A1.736 1.736 0 0 1 6.653 7.81h8.678c.913 0 1.67.709 1.731 1.62l.993 14.886.179-1.651a1.735 1.735 0 0 1 1.725-1.55h8.677c.905 0 1.657.695 1.73 1.596l.83 10.233 10.362-6.908a1.736 1.736 0 0 1 2.698 1.444v4.766l8.84-6.187a1.737 1.737 0 0 1 2.73 1.421v4.766l8.839-6.187a1.737 1.737 0 0 1 2.73 1.421v27.19h.579c.959 0 1.736.778 1.736 1.736v6.364a1.733 1.733 0 0 1-1.735 1.734zM3.76 61.034h62.48V58.14h-.579a1.735 1.735 0 0 1-1.735-1.735V30.813L55.086 37a1.734 1.734 0 0 1-2.73-1.421v-4.766L43.516 37a1.734 1.734 0 0 1-2.73-1.421v-4.857l-8.679 6.014v7.52a1.735 1.735 0 0 1-3.464.14L26.9 24.587h-5.207L19.37 44.444c-.097.895-.853 1.588-1.761 1.549a1.735 1.735 0 0 1-1.696-1.62L13.595 11.28H8.388L6.074 45.413v10.413c0 .959-.776 1.737-1.735 1.737l-.579-.001v3.471z"/><path d="M15.33 15.91H6.654a1.157 1.157 0 0 1 0-2.315h8.678a1.157 1.157 0 0 1 0 2.314zm13.306 13.305H19.96a1.157 1.157 0 0 1 0-2.314h8.677a1.157 1.157 0 0 1 0 2.314zM23.43 19.38a1.157 1.157 0 0 1-1.157-1.157c0-2.725 1.903-4.628 4.628-4.628h6.363a1.157 1.157 0 0 1 0 2.314h-6.363c-1.428 0-2.314.886-2.314 2.314 0 .64-.518 1.157-1.157 1.157zM10.702 6.074a1.157 1.157 0 0 1-1.157-1.157C9.545 2.193 11.45.29 14.174.29h6.363a1.157 1.157 0 0 1 0 2.314h-6.363c-1.428 0-2.314.887-2.314 2.314 0 .64-.519 1.157-1.158 1.157zm17.934-3.471h-4.628a1.157 1.157 0 0 1 0-2.314h4.628a1.157 1.157 0 0 1 0 2.314zm9.835 13.307h-1.735a1.157 1.157 0 0 1 0-2.315h1.735a1.157 1.157 0 0 1 0 2.314zm5.207 0h-1.736a1.157 1.157 0 0 1 0-2.315h1.736a1.157 1.157 0 0 1 0 2.314z"/></g></svg><svg width="131" height="18" viewBox="0 0 131 18" id="footer-logo" y="176"><title>logo</title><path d="M124.776 8.377h-1.152V2.569h1.152c1.608 0 2.904 1.2 2.904 2.88s-1.296 2.928-2.904 2.928zm0-7.993h-3.48v16.802h2.328v-6.721h1.152c2.904 0 5.257-2.112 5.257-5.016S127.68.384 124.776.384zm-15.839 14.882c-3.505 0-6.337-2.905-6.337-6.481s2.832-6.48 6.337-6.48c3.504 0 6.336 2.904 6.336 6.48 0 3.576-2.832 6.481-6.336 6.481zm0-15.266c-4.849 0-8.785 3.937-8.785 8.785 0 4.849 3.936 8.785 8.785 8.785 4.848 0 8.784-3.936 8.784-8.785 0-4.848-3.936-8.785-8.784-8.785zM88.536 15.266c-3.504 0-6.336-2.905-6.336-6.481s2.832-6.48 6.336-6.48c3.505 0 6.337 2.904 6.337 6.48 0 3.576-2.832 6.481-6.337 6.481zm0-15.266c-4.848 0-8.784 3.937-8.784 8.785 0 4.849 3.936 8.785 8.784 8.785 4.849 0 8.785-3.936 8.785-8.785C97.321 3.937 93.385 0 88.536 0zM73.848 2.329v12.673H70.68l-2.184 2.16v.024h7.68V.024h-.024l-2.304 2.305zM54.12 17.546h.024l2.304-2.304V2.569h3.168L61.801.408V.384H54.12v17.162zM41.472 2.569h8.449V.385h-8.449v2.184zm0 7.464h8.449V7.849h-8.449v2.184zm0 7.153h8.449v-2.184h-8.449v2.184zm-8.16-8.809H32.16V2.569h1.152c1.608 0 2.904 1.2 2.904 2.88s-1.296 2.928-2.904 2.928zm0-7.993h-3.48v16.802h2.328v-6.721h1.152c2.904 0 5.257-2.112 5.257-5.016S36.216.384 33.312.384zM20.616 10.849L16.608.384h-2.712l5.472 13.538-1.272 3.264h2.424L27.241.384h-2.52l-4.105 10.465zM8.977 2.329v5.52H2.328v-5.52L.024.024H0v17.522h.024l2.304-2.304v-5.209h6.649v5.257l2.304 2.304h.024V.024h-.024L8.977 2.329z" fill="#FEFEFE" fill-rule="evenodd" opacity=".1"/></svg><svg width="90" height="52" viewBox="0 0 90 52" id="fundamental" y="194"><title>icon</title><path d="M46.98 17.396a7.98 7.98 0 0 1-2.189-.288c-1.084-.292-1.808-.804-1.808-1.39 0-.912 1.735-1.65 3.874-1.65.808 0 1.558.106 2.18.287 1.094.29 1.827.804 1.827 1.393 0 .91-1.74 1.648-3.884 1.648zm-.448-12.861l-34.906 12.54 11.365 4.31c.44.168.791.458 1.037.815l22.504 8.085 22.532-8.095c.283-.36.686-.627 1.131-.787.011-.004.02-.01.03-.014l11.24-4.303L46.532 4.535zM23.675 38.819c.325 2.05 9.75 8.057 22.857 8.057 12.156 0 20.433-5.01 22.093-7.335-.01-.082 0-.647 0-.733V25.465L47.037 33.22a1.508 1.508 0 0 1-1.01 0l-22.352-8.03v13.629zM6.29 33.693c-1.02 0-1.85.82-1.85 1.83 0 1.01.83 1.832 1.85 1.832s1.85-.822 1.85-1.831c0-1.01-.83-1.831-1.85-1.831zM88.591 19.07l-15.346 5.875v12.808a2.166 2.166 0 0 1 .23 1.533C72.458 44.719 59.96 51.27 46.531 51.27c-13.265 0-27.346-6.411-27.346-12.463v-14.16l-11.048-4.19v9.115c2.567.784 4.44 3.155 4.44 5.95 0 2.796-1.873 5.167-4.44 5.95v8.333a2.18 2.18 0 0 1-2.188 2.197c-1.226 0-2.26-.986-2.26-2.2v-8.617C1.517 40.205 0 38.038 0 35.524c0-2.515 1.517-4.681 3.69-5.663V19.016c0-.141.035-.272.063-.405A2.182 2.182 0 0 1 3.056 17a2.199 2.199 0 0 1 1.462-2.046L45.775.132a2.237 2.237 0 0 1 1.514 0l41.258 14.823a2.201 2.201 0 0 1 1.463 2.043 2.198 2.198 0 0 1-1.419 2.072z" fill="#FEFEFE" fill-rule="evenodd"/></svg><svg width="216" height="199" viewBox="0 0 216 199" id="handshake" y="246"><title>handshake</title><defs><path id="a" d="M.828 42h166.834V.654H.828V42z"/></defs><g fill="none" fill-rule="evenodd"><path d="M135.979 14.733l-18.874 15.354 1.974 1.823 61.727 59.262c4.76-3.866 13.156-11.505 13.156-11.505s-.083-21.49-16.342-42.198c-13.25-16.877-38.281-22.167-38.281-22.167" fill="#D6D0CC" transform="translate(3 3)"/><g transform="translate(31 156.377)"><mask id="b" fill="#fff"><use xlink:href="#a"/></mask><path d="M167.662 21.328c0 11.415-37.348 20.673-83.417 20.673C38.175 42 .828 32.743.828 21.328.828 9.911 38.175.654 84.245.654c46.069 0 83.417 9.257 83.417 20.674" fill="#B8CBCD" mask="url(#b)"/></g><path d="M183.302 90.77s-6.338-24.719-16.838-39.301c-10.5-14.583-33.835-19.25-45.5-19.25-11.668 0-20.967.582-20.967.582s-15.167-8.165-33.25 0c-18.085 8.168-30.335 18.668-31.5 33.25-1.17 14.583-2.335 25.085-2.335 25.085s-9.334 2.915-12.834 10.5c-3.5 7.583-3.5 12.833 2.334 17.5l5.835 4.665s6.415 6.42 12.25 11.085c5.83 4.665 16.33 4.083 16.33 4.083s1.17 8.751 5.835 13.417c4.666 4.665 16.335.583 16.335.583s-4.67 9.917 4.665 13.417 22.166-2.335 22.166-2.335 3.5 9.335 15.75 4.668c12.252-4.668 12.252-14.583 12.252-14.583s7.584 1.165 12.25-4.667c4.665-5.833 9.332-11.083 9.332-11.083s6.999 4.665 11.083-2.335c4.085-7 8.75-15.75 8.75-15.75s1.752 3.502 9.335-1.75c7.582-5.25 10.5-11.082 10.5-11.082l-11.778-16.7z" fill="#ECBC96" transform="translate(3 3)"/><path d="M81.29 100.649s12.687 2.187 23.187-7.438c6.84-6.27 7.437-11.812 7.437-11.812s7.674 1.195 20.361-2.365c11.078-3.108 18.14-12.073 18.14-12.073l-9.914-2.926-39.385 6.327-7.773 19.14-12.054 11.147z" fill="#D79A73" transform="translate(3 3)"/><path d="M101.213 35.219S64.05 5.437 63.281 4.814C55.526-1.48 36.478 9.13 20.738 28.516 5 47.903-1.477 68.726 6.276 75.022c.508.412 15.097 12.259 24.973 20.276l2.128 2.036" stroke="#4F3625" stroke-width="6"/><path d="M109.467 166.347l4.06 3.299c5.434 4.408 13.409 3.58 17.819-1.851 4.408-5.43 3.58-13.407-1.848-17.815l4.432 3.598c5.429 4.411 13.407 3.58 17.814-1.847 4.41-5.43 3.58-13.408-1.848-17.813l4.43 3.598c5.429 4.408 13.409 3.579 17.817-1.85 4.412-5.43 3.583-13.405-1.848-17.815l4.435 3.602c5.428 4.405 13.405 3.579 17.811-1.852 4.41-5.43 3.58-13.406-1.848-17.815l-43.895-35.64" stroke="#4F3625" stroke-width="6" stroke-linecap="round" stroke-linejoin="round"/><path d="M105.094 35.747C85.188 28.302 61.92 33.93 47.784 51.34 36.91 64.737 33.97 81.992 38.373 97.413" stroke="#4F3625" stroke-width="4" stroke-linecap="round" stroke-linejoin="round"/><path d="M65.61 134.488l-4.432 3.598c-5.43 4.409-13.406 3.58-17.816-1.851-4.41-5.429-3.583-13.403 1.85-17.813l-4.435 3.6c-5.429 4.408-13.407 3.582-17.812-1.849-4.411-5.43-3.58-13.408 1.848-17.815m77.164 67.858c-5.433 4.41-13.409 3.58-17.817-1.851-4.409-5.432-3.579-13.409 1.848-17.813" stroke="#4F3625" stroke-width="6" stroke-linecap="round" stroke-linejoin="round"/><path d="M115.63 34.492c16.581-.717 38.546 4.512 51.124 17.16 12.887 12.968 19.365 28.78 18.357 45.7" stroke="#4F3625" stroke-width="4" stroke-linecap="round" stroke-linejoin="round"/><path d="M145.911 66.512s-9.47 3.358-21.556 4.7c-10.86 1.208-23.501.672-23.501.672s-4.027 16.114-7.389 23.501c-3.354 7.385-18.798 8.057-20.812-4.029-2.015-12.087.672-29.545 6.042-38.946 5.373-9.399 17.458-14.2 26.86-16.884 4.173-1.193 7.117-1.736 11.41-2.058 0 0 34.49-27.46 35.26-28.084 7.754-6.293 26.803 4.32 42.54 23.704 15.74 19.386 22.217 40.21 14.465 46.506l-25.234 20.487M66.362 133.818c4.732-5.318 13.383-6.293 18.7-1.56 5.32 4.733 5.795 12.883 1.063 18.2l-.117.092-4.431 3.598c-5.43 4.412-13.407 3.58-17.817-1.848-4.407-5.428-3.58-13.407 1.85-17.811" stroke="#4F3625" stroke-width="6" stroke-linecap="round" stroke-linejoin="round"/><path d="M47.903 115.944c4.684-5.262 12.748-5.731 18.01-1.048 5.265 4.683 5.734 12.749 1.049 18.007m19.446 17.284c4.683-5.262 12.749-5.731 18.01-1.05 5.265 4.687 5.734 12.75 1.05 18.01l-1.433 1.395-2.794 2.44m-75.605-69.603c4.685-5.263 12.747-5.732 18.01-1.049 5.265 4.685 5.734 12.75 1.053 18.008" stroke="#4F3625" stroke-width="6" stroke-linecap="round" stroke-linejoin="round"/><path d="M75.547 79.26s7 1.75 7.875 7" stroke="#4F3625" stroke-width="4" stroke-linecap="round" stroke-linejoin="round"/></g></svg><svg width="195.031" height="26.4" viewBox="0 0 195.031 26.4" id="header-logo" y="445"><defs><style>.cls-1{fill:#fff;fill-rule:evenodd}</style></defs><path id="logo" class="cls-1" d="M662.866 1077.42v26.28h.034l3.455-3.46v-7.81h9.971v7.88l3.456 3.46h.036v-26.35h-.036l-3.456 3.46v8.27h-9.971v-8.27l-3.455-3.46h-.036zm30.779 25.74l10.079-25.2h-3.78l-6.155 15.69-6.011-15.69h-4.068l8.207 20.3-1.908 4.9h3.636zm19.188-25.2h-5.219v25.2h3.491v-10.08h1.728a7.567 7.567 0 1 0 0-15.12zm0 11.99h-1.728v-8.71h1.728a4.243 4.243 0 0 1 4.356 4.31 4.318 4.318 0 0 1-4.356 4.4zm24.911-11.99h-12.67v3.28h12.67v-3.28zm0 11.19h-12.67v3.28h12.67v-3.28zm0 10.73h-12.67v3.28h12.67v-3.28zm17.82-21.88v-.04h-11.518v25.74h.036l3.455-3.46v-19h4.752zm10.046 25.12v.04h11.519v-25.74h-.036l-3.456 3.46v19h-4.751zm16.884-12.56a13.175 13.175 0 1 0 13.174-13.18 13.177 13.177 0 0 0-13.174 13.18zm3.671 0a9.505 9.505 0 1 1 9.5 9.72 9.608 9.608 0 0 1-9.5-9.72zm26.929 0a13.175 13.175 0 1 0 13.174-13.18 13.177 13.177 0 0 0-13.174 13.18zm3.672 0a9.5 9.5 0 1 1 9.5 9.72 9.607 9.607 0 0 1-9.5-9.72zm33.263-12.6h-5.219v25.2h3.49v-10.08h1.728a7.567 7.567 0 1 0 .001-15.12zm0 11.99H848.3v-8.71h1.728a4.242 4.242 0 0 1 4.355 4.31 4.317 4.317 0 0 1-4.354 4.4z" transform="translate(-662.875 -1077.38)"/></svg><svg width="28" height="23" viewBox="0 0 28 23" id="menu" y="472"><defs><style>.cls-1{fill:#fff;fill-rule:evenodd}</style></defs><path id="burger" class="cls-1" d="M1805 1077h28v3h-28v-3zm0 10h28v3h-28v-3zm0 10h28v3h-28v-3z" transform="translate(-1805 -1077)"/></svg><svg width="50" height="62" viewBox="0 0 50 62" id="personal" y="495"><title>operator</title><g fill="#FFF" fill-rule="evenodd"><path d="M25 53.09a6.75 6.75 0 0 1-6.742-6.742v-3.932h3.371v3.932A3.374 3.374 0 0 0 25 49.72a3.374 3.374 0 0 0 3.37-3.37v-3.933h3.372v3.932A6.75 6.75 0 0 1 25 53.09z"/><path d="M46.91 47.472h-1.685c-5.508 0-9.997-1.675-13.344-4.98l2.368-2.398c2.356 2.326 5.475 3.648 9.29 3.944V22.472a50.94 50.94 0 0 0-.018-.831l-.032-.464c-.667-9.828-8.912-17.525-18.77-17.525-9.857 0-18.102 7.697-18.77 17.524l-.032.463a52.05 52.05 0 0 0-.018.856v21.543c3.815-.296 6.935-1.619 9.29-3.945l2.369 2.399c-3.347 3.305-7.837 4.98-13.345 4.98H2.528v-25c.008-.56.015-1.076.08-1.523h-.022C3.374 9.358 13.096.28 24.719.28c11.624 0 21.346 9.078 22.133 20.667l-.022.001c.064.441.072.951.08 1.5v25.023z"/><path d="M24.72 44.463c-8.83 0-16.012-7.182-16.012-16.01v-5.4c0-.606.48-1.102 1.085-1.123 5.937-.203 14.22-1.91 19.967-8.889.201-.244.497-.393.814-.408.308-.01.624.104.848.328 2.605 2.604 5.558 5.558 8.718 7.264.363.196.59.575.59.988v7.24c0 8.827-7.182 16.01-16.01 16.01zm-13.765-20.34v4.329c0 7.59 6.175 13.764 13.764 13.764 7.59 0 13.764-6.174 13.764-13.764V21.87c-2.858-1.675-5.455-4.141-7.795-6.468-5.863 6.45-13.718 8.347-19.733 8.721z"/><ellipse cx="17.135" cy="28.371" rx="1.685" ry="1.685"/><ellipse cx="32.865" cy="28.371" rx="1.685" ry="1.685"/><path d="M20.506 33.989c0 2.327 1.886 4.494 4.213 4.494s4.214-2.167 4.214-4.494h-8.427zM1.966 61.517a1.686 1.686 0 0 1-1.574-2.286c4.87-12.785 19.023-12.333 19.168-12.324.93.04 1.65.826 1.611 1.756-.04.93-.834 1.661-1.752 1.612-.488-.015-11.884-.329-15.878 10.156a1.685 1.685 0 0 1-1.575 1.086zm46.068 0c-.68 0-1.32-.413-1.576-1.086-4.014-10.538-15.475-10.166-15.592-10.16a1.685 1.685 0 1 1-.146-3.367c.139-.01 14.018-.46 18.888 12.327a1.686 1.686 0 0 1-1.574 2.286z"/></g></svg><svg width="66" height="59" viewBox="0 0 66 59" id="portfolio" y="557"><title>icon</title><path d="M62.958 32.04c-3.663 3.115-10.368 3.962-21.318 3.962l-1.275-.001v1.612c0 1.68-1.379 3.083-3.011 3.478v3.722c0 1.324-1.384 2.4-2.715 2.4h-3.618c-1.331 0-2.7-1.076-2.7-2.4v-3.718c-1.635-.39-3.011-1.798-3.011-3.482v-1.612l-1.367.001c-10.336 0-17.155-1.423-20.964-3.953V56.03h59.979V32.04zM30.73 26.813h4.215v-3H30.73v3zm-1.518 12h7.236c.666 0 1.508-.537 1.508-1.2v-7.2c0-.663-.842-1.2-1.508-1.2h-7.236c-.667 0-1.493.537-1.493 1.2v7.2c0 .663.826 1.2 1.493 1.2zm1.518 6h4.215v-3.6H30.73v3.6zM2.977 18.039c-.027 6.289-.013 9.57 1.859 11.43 2.481 2.466 8.525 3.573 20.474 3.557v-2.613c0-1.685 1.376-3.092 3.011-3.482v-3.118c0-1.324 1.369-2.4 2.7-2.4h3.618c1.331 0 2.715 1.076 2.715 2.4v3.122c1.632.395 3.011 1.798 3.011 3.478v2.613c11.81.011 18.047-.974 20.596-3.508 1.729-1.718 2.044-4.554 2.058-11.527l-60.042.048zm55.644-8.937a.8.8 0 0 0-.22-.109l-13.41.001v2.219c0 .994-.809 1.8-1.809 1.8a1.805 1.805 0 0 1-1.809-1.8V8.994l-16.739.001v2.218c0 .994-.81 1.8-1.809 1.8-1 0-1.81-.806-1.81-1.8V8.995l-14.929.001a.35.35 0 0 0-.069.047l-2.231 6.87h58.367l-3.532-6.811zM41.373 3.638a.61.61 0 0 0-.603-.6H25.237a.61.61 0 0 0-.603.6V6h16.739V3.638zm24.594 53.546c0 .994-1.07 1.8-2.069 1.8H2.054c-1 0-2.054-.806-2.054-1.8V17.213c0-.019.002-.037.003-.056a1.727 1.727 0 0 1 .014-.248l.007-.076c.007-.043.015-.086.025-.129.039-.216.104-.413.198-.587l2.444-7.889C3.222 6.937 4.627 6 6.029 6h14.986V4.2c0-2.315 1.894-4.2 4.222-4.2H40.77c2.327 0 4.221 1.885 4.221 4.2V6h13.454c1.328 0 2.745.847 3.369 2.013l3.967 8.353c.012.022.017.046.028.069a1.91 1.91 0 0 1 .125.343c.014.055.024.111.032.168.01.064.017.128.02.193.001.025.008.049.008.074 0-6.531-.027 39.971-.027 39.971z" fill="#FEFEFE" fill-rule="evenodd"/></svg></svg>