<svg viewBox="0 0 24 24" xmlns="http://www.w3.org/2000/svg"><title>vimeo</title><path d="M11.972 0c6.612 0 11.972 5.36 11.972 11.972 0 6.612-5.36 11.972-11.972 11.972C5.36 23.944 0 18.584 0 11.972 0 5.36 5.36 0 11.972 0zM5.238 9.727l.584.805s.826-.656 1.119-.607c.754.198 1.399 3.29 1.728 4.47.327 1.18.728 3.563 2.346 3.563 2.615 0 6.944-6.543 6.944-8.678 0-1.403-.39-2.546-2.008-2.546-1.617 0-2.881 1.056-3.429 3.042.596-.285 1.68-.434 1.763.559.085.993-1.41 3.563-2.068 3.563-.655 0-1.142-2.906-1.313-4.234-.17-1.328-.474-2.792-1.714-2.792-1.241 0-2.833 1.962-3.952 2.855z" fill="#29323c"/></svg>